<svg xmlns="http://www.w3.org/2000/svg" viewBox="0 0 300 300"><title>Los Angeles Angels cap on light logo</title><path fill="#fff" d="M166.65 277.24h72.53c-6.7-4.56-12.63-12.51-15.27-21.65l-20.27-69.56c-2.19-7.48 1.37-14.99 7.07-20.05-8.09-2.49-15.27-8.09-17.52-15.85l-11.35-38.95c16.14-5.4 26.66-14.97 26.66-26.08 0-14.51-17.95-26.39-42.95-29.79l-9.5-32.56h-10.62l-9.5 32.57c-25 3.4-42.98 15.27-42.98 29.78 0 11.12 10.55 20.68 26.7 26.08l-11.35 38.95c-2.25 7.76-9.44 13.36-17.53 15.85 5.69 5.06 9.28 12.56 7.09 20.05l-20.28 69.56c-2.69 9.13-8.57 17.09-15.25 21.65h72.54c-5.93-4.56-9.18-12.51-6.52-21.65l1.78-6.05h41.24l1.76 6.05c2.65 9.13-.58 17.09-6.49 21.65Zm-22.14-76.98 6.26-21.52 6.25 21.52z"/><path fill="#003263" d="M235.1 263.95h6.75v1.48h-2.52v6.87h-1.71v-6.87h-2.52Zm15.24 0h2.94v8.35h-1.71v-6.65h-.04l-2.42 6.65h-1.65l-2.33-6.65h-.04v6.65h-1.72v-8.35h2.96l1.95 5.45h.04Zm-73.57 8.35c4.05-8.95 1.91-15.46.13-21.6l-1.8-6.12h-48.68l-1.78 6.12c-1.82 6.14-3.95 12.66.1 21.6H74.52c3.48-4.51 6.23-9.78 7.84-15.3l20.13-69.12c3.21-10.96-2.7-18.75-3.49-19.99 7-3.79 12.11-9.56 14.08-16.39l12.26-42.05c-17.29-4.6-29.08-13.76-29.08-24.34 0-13.38 18.95-24.55 44.04-27.01l8.85-30.39h3.21l8.85 30.39c25.08 2.48 44.01 13.64 44.01 27.01 0 10.57-11.78 19.74-29.06 24.34l12.26 42.05c1.95 6.83 7.07 12.6 14.07 16.39-.77 1.24-6.68 9.03-3.49 19.99L219.14 257c1.62 5.52 4.37 10.79 7.83 15.3Zm-13.13-67.08-12.87-44.21-12.91 44.21Z"/><path fill="#862633" d="M150.76 65.53c-1.53 0-3.04.04-4.53.1l4.53-15.52Zm62.85 198.97h-27.42c.64-4.15 0-9.64-1.1-13.51l-4.16-14.19h-60.4l-8.49-11.87-9.11 31.23 12.36 8.34H87.84a46.7 46.7 0 0 0 2.76-7.15l19.27-65.89c3.03-10.3 1.35-14.75-.83-20.96 5.8-4.44 9.61-10.22 11.49-16.73l14.63-50.19c.01.01.02.01.02.01l2.21-7.65 6.46-22.2c2.23-.13 4.54-.21 6.9-.21 1.99 0 3.93.06 5.84.15.35.01.7.02 1.04.05l1.27 4.42c-2.64-.14-5.38-.25-8.15-.25v14.41l-38.71 132.6h77.4l8.88 30.43 15.3 9.14ZM150.76 92.31l38.69 132.6-15.43-11.89-23.26-79.85Z"/><path fill="#ba0021" d="m174.02 213.02 15.417 11.88L150.76 92.31V77.9c2.78 0 5.51.11 8.15.25l-1.27-4.42 6.47 22.2h-.01l-.01-.01 2.2 7.65c.01 0 .03-.01.03-.01l14.62 50.19c1.86 6.52 5.71 12.29 11.5 16.73-2.2 6.22-3.85 10.66-.83 20.96l19.26 65.89c.72 2.45 1.67 4.83 2.75 7.15l-15.3-9.14-8.88-30.43h-77.38l8.49 11.87-4.1 14.19c-1.19 3.88-1.81 9.36-1.15 13.51l-12.36-8.34h.01l9.11-31.23h-.01l38.71-132.6v40.86l-23.32 79.85ZM150.76 65.53V50.11l4.53 15.52c-1.49-.06-3-.1-4.53-.1"/><path fill="#c4ced4" d="M137.4 95.93c-14.01-1.67-23.97-5.91-23.97-10.83 0-5.66 13.1-10.37 30.43-11.38 2.24-.13 4.54-.21 6.9-.21 1.99 0 3.93.07 5.84.15.35.01.69.03 1.04.05 17.32 1 30.44 5.7 30.44 11.38 0 4.92-9.97 9.15-23.97 10.83h-.01l2.2 7.65.03-.01c18.05-2.71 30.99-9.92 30.99-18.46 0-10.16-18.45-18.53-42.03-19.48-1.49-.06-3-.1-4.53-.1s-3.04.04-4.53.1c-23.63.95-42.04 9.32-42.04 19.48 0 8.54 12.92 15.76 30.98 18.46 0 .01 0 .01.02.01l2.21-7.65Z"/></svg>