<svg xmlns="http://www.w3.org/2000/svg" viewBox="0 0 300 300"><title>Arizona D-backs cap on light logo</title><path fill="#aa182c" d="m51.52 237.14-.29.17 54.94-34.06-11.54-28.31 37.46-23.61-12.11-22.45 36.19-17.32-11.86-20.55 27.55-12.39-10.32-15.84h42.98l38.86 174.43H182.6l13.4-18.13-20.72-92.67H157.1l-54.86 90.23-.27.43 9.76 20.07Zm118.63-67.95s-5.08 8.12-6.05 9.68c.63 2.09 7.21 24.08 7.21 24.08s-13.29-16.13-15.14-18.36c-2.68 2.2-21.5 17.76-21.5 17.76l14.28-24.69c-.4-1.54-2.16-8.47-2.16-8.47Z"/><path d="m173 241.94 17.56-24.03-19.55-87.2h-11.27l-51.76 86.33 12.06 24.88H43.8l4.7-2.91.07-.05 2.66-1.65.29-.17h60.21l-9.76-20.07.27-.43 54.86-90.23h18.18L196 219.08l-13.4 18.13h60.78L204.52 62.78h-42.98v-.01l-.61-.93-2.55-3.91 50.19.03 40.92 183.96Zm-23.68-132.55-36.22 17.48 12.92 23.16-37.36 23.42 11.75 27.96-61.27 38.6-3.02 1.91L152.84 57.93l.89 1.31 11.69 17.18-27.8 12.36Zm110.82 131.57h4.59v1.01h-1.71v4.66h-1.16v-4.66h-1.72Zm12.34 0v5.67h-1.16v-4.51h-.02l-1.64 4.51h-1.12l-1.59-4.51h-.03v4.51h-1.16v-5.67h2.02l1.31 3.7h.03l1.37-3.7Z"/><path fill="#3ec1cc" d="M184.66 216.84 163 246.63h92.52L212.48 54.09l-.16-.73-62.68.04L27.52 246.63h100.47l-14.1-29.64 28.07-47.11 1.89 7.46-23.51 40.57 35.25-26.16 23.64 26.16-9.81-37.92 5.39-8.61 9.85 45.47Zm-28.49-32.25c-2.67 2.2-21.5 17.76-21.5 17.76l14.28-24.69c-.4-1.54-2.16-8.47-2.16-8.47h23.37s-5.08 8.12-6.05 9.68c.63 2.09 7.21 24.08 7.21 24.08l-15.14-18.36M145 164.77l17.67-29.66h4.27l6.43 29.66zM36.11 241.92 152.84 57.93l.89 1.31 11.69 17.18-27.8 12.36 11.7 20.61-36.21 17.48 12.92 23.16-37.37 23.42 11.76 27.96-61.28 38.6-3.02 1.9Zm83.93 0H43.8l62.37-38.67-11.54-28.31 37.46-23.6-12.11-22.45 36.2-17.32-11.87-20.55 27.55-12.39-10.32-15.84-.6-.93-2.56-3.91 50.2.03 40.91 183.96-76.48.02 17.56-24.03-19.55-87.2h-11.27l-51.77 86.33 12.07 24.87Z"/></svg>