<svg xmlns="http://www.w3.org/2000/svg" viewBox="0 0 300 300"><title>Baltimore Orioles cap on light logo</title><path fill="#df4601" d="M150.26 82.25c-.49.21-.76.22-.84.03-.21-.5-.08-1.65.26-2.4.23-.48.37-.7.57-.76.04-.02.11-.06.18-.06-.18.67-.18.74-.22 1.16.4-.05.62.04.7.27.16.33.04.96-.23 1.39-.11.2-.24.28-.42.38Zm-.09 8.87c.91-.57 1.19-1.85 1.37-3.73l.23-2.83c.03-.86.1-1.9.3-2.51l1.44-1.04.11-.08.04.15c.07.37.25.72.54.97l.44.36 1.24 1.05c.52.5.82.85.9 1.12l.15.53.05.23c.22 1.25-.38 2.44-1.52 3.06-.54.32-1.14.29-1.53.15-.28-.12-.66-.43-.8-.86-.22-.67.1-1.94 1.87-2.61 0 0 .08-.03.17-.06-.08-.06-.15-.11-.15-.11-.54-.37-1.54-1.18-1.92-1.79l-.1-.15c-.04.07-.06.16-.06.16-.08.27-.15.6-.2 1.04l-.11 1.53-.03.42-.09 1.43-.23 1.59c-.43 1.91-1.18 3.05-2.32 3.52l-.15.08.29-1.57.03-.03Zm5.34-5.43s-.07-.06-.11-.09c-.83.26-1.35.61-1.57 1.07-.17.36-.13.75.12 1.03.25.27.62.33.98.19.38-.15.6-.38.74-.72.12-.28.18-.73-.04-1.25a.5.5 0 0 0-.12-.23m-18.34 12.56c-2.42-1.39-4.34-4.11-5.58-7.85-1.19-3.65-1.34-8.3.3-12.31-.65-1.83-.32-3.92.74-5.45 1-1.44 2.57-2.27 4.41-2.36 3.17-.17 6.12 2.84 8.39 8.84.5-.53 1.01-1.23 1.31-1.95l1.22.45c-.48 1.09-1.26 2.22-2.03 2.84 1.49 4.08 1.82 10.4-.14 14.49-.92 1.89-2.26 3.17-4 3.75-1.4.47-3.19.36-4.61-.46Zm-2.04-24.21c-.64.99-.68 2.45-.12 3.78.59 1.39 1.89 2.61 3.39 3.18 1.31.53 2.63.56 4.22-.23-1.06-3.61-3.04-7.9-5.29-7.89-.93 0-1.7.41-2.19 1.16Zm-.46 14.91c.94 3.22 3.33 7.65 6.31 7.08.92-.19 1.42-.52 2-1.41.93-1.44 1.11-3.82 1.1-5.57-.03-2.15-.46-5-1.08-6.95-3.03 1.7-5.59 1.73-8.34 0-.64 2.19-.61 4.68.01 6.85m-17.83-22.4-13.6 5.11c3.47-12.87 13.6-5.11 13.6-5.11M236.09 78.8s-17.08 10.37-33.87 22.08c-18.36 10.99-31.75 15.41-53.01 14.95-13.92-1.91-22.96-1.78-14-7.73 0 0 20.83-16.19 44.37-18.88 21.84-2.73 56.51-10.42 56.51-10.42m13.89-.41c3.06 4.2-14.14 14.87-35.3 22.05 0 0 34.05-23.75 35.3-22.05m-38.37 158.6h-2.45v6.68h-1.68v-6.68h-2.46v-1.46h6.59Zm9.51 6.69v-6.5h-.03l-2.37 6.5h-1.6l-2.29-6.5h-.05v6.5h-1.66v-8.15h2.89l1.9 5.34h.04l1.98-5.34h2.87v8.15Zm46.77-174.56c5.6 13.34 1.06 22.7-11.3 32.6-15.52 12.39-37.86 19.65-54.17 23.33 0 0 .16 2.47 2.07 8.89 32.23-3.07 53.63 7.75 54.71 17.59.18 2.5-1.82 5.84-6.86 7.22-24.97 6.54-30.08 19.06-36.4 46.81-17.44 76.49-162.52 69.25-161.96-30.86l-7.69 1.24s-5.43-22.53 19.5-41.96c-4.45-10.15-15.76-40.68 11.87-64.1 4.4-4.26 5.96-4.64 7.9-6.42 1.28-3.76 4.04-7.36 5.58-8.91 7.75-8.04 17.69-9.32 17.69-9.32 10.75-1.65 16.53 3.24 18.42 4.5 2.12.69 4.59.17 9.75.87 9.09 1.18 23.42 5.09 35.98 19.72 0 0 16.08-2.1 23.75-3.71 21.52-4.46 43.06-9.8 55.87-8.51 8.11 1.42 13.16 5.99 15.26 11.01Zm-36.92 32.93c11.08-5.05 18.65-10.64 20.7-12.68 1.54-1.52 7.5-8.03 5.27-13.21-2.23-5.29-7.52-5.67-13.88-5.1-5.5.5-8.01.68-41.98 8.22-17.71 3.58-28.01 3.81-34.32 5.76 0 0-8.33-20.28-36.06-21.24-3.54 0-9.37-.71-12.37-3.69-3.17-2.33-8.54-2.04-12.99.65-3.48 1.87-6.27 4.76-6.97 7.5-1.2 4.65-2.87 4.43-9.4 9.85-8.02 6.61-26.34 21.2-7.05 57.95l.8 1.61h.05c-18.82 10.91-21.58 23.56-21.58 23.56l8.71-.58c-1.2 2.39-2.42 10.13-2.42 13.63-.24 19.84 5.83 36.17 18.04 48.53 13.32 13.49 33.33 21.2 54.88 21.23 15.13 0 29.6-3.96 40.79-11.09 5.15-3.29 9.54-7.24 13.07-11.71-43.21 26.87-82.71 3.98-90.67-18.87-7.77-22.28 6.23-39.64 23.89-35.34 24.86 6.05 37.87 2.62 41.83-9.52 3.14 1.1 10.19.95 14.47-1.24 6.43-3.34 21.52-8.75 43.05-4.67-26.9 14.91-25.1 34.12-55.25 42.04-34.19 8.96-61.79-14.02-41.79-18.59 4.65-.86 5.29-3.91.23-2.98-11.99.67-27.35 6.93-12.97 30.78 0 0 2.07.82 2.93.01 0 0-5.5-12.09-1.28-15.66 19.37 18.6 62.17 21.88 89.13-13.87 9-11.93 19.65-18.98 29.85-23.06-16.39-3.92-34.76-4.37-44.96-1.32-1.19-16.24-2.16-20.64-5.25-27.54-1.37-3.06-1.63-4.91 5.42-6.84 4.44-1.19 22.54-5.43 38.09-12.52Z"/><path d="M256.95 76.17c2.22 5.18-3.73 11.7-5.27 13.21-2.05 2.05-9.62 7.63-20.7 12.68-15.55 7.09-33.66 11.33-38.09 12.52-7.07 1.93-6.8 3.78-5.43 6.84 3.08 6.9 4.05 11.31 5.25 27.56 10.19-3.06 28.56-2.61 44.96 1.31-10.2 4.08-20.85 11.11-29.85 23.05-26.94 35.76-69.76 32.47-89.13 13.87-4.23 3.57 1.28 15.66 1.28 15.66-.87.8-2.93-.01-2.93-.01-14.38-23.85 1-30.12 12.98-30.78 5.06-.93 4.41 2.12-.23 2.98-20 4.57 7.61 27.55 41.79 18.59 30.15-7.92 28.34-27.13 55.24-42.04-21.52-4.08-36.61 1.34-43.03 4.66-4.29 2.21-11.34 2.35-14.48 1.26-3.96 12.14-16.97 15.55-41.82 9.51-17.66-4.3-31.65 13.06-23.89 35.34 7.95 22.85 47.46 45.73 90.67 18.85-3.52 4.48-7.91 8.44-13.07 11.74-11.19 7.12-25.65 11.08-40.79 11.08-21.54-.03-41.55-7.74-54.88-21.23-12.2-12.36-18.27-28.69-18.04-48.55 0-3.5 1.23-11.23 2.42-13.59l-8.71.56s2.77-12.65 21.59-23.56h-.02L109 123.83c-14.78 6.93-28.93 8.57-28.93 8.57l1.84 3.68c-19.28-36.76-.94-51.35 7.06-57.96 6.55-5.42 8.22-5.21 9.41-9.85.71-2.75 3.49-5.64 6.96-7.49 4.45-2.71 9.83-3 12.99-.65 2.99 2.97 8.82 3.68 12.38 3.68 27.72.96 36.06 21.24 36.06 21.24 6.3-1.95 16.6-2.18 34.31-5.76 33.97-7.54 36.48-7.71 41.98-8.22 6.37-.57 11.64-.19 13.88 5.1Zm-153.717-4.521 13.617-5.109s-10.134-7.756-13.617 5.109M151.7 84.62l-.23 2.83c-.18 1.88-.46 3.17-1.37 3.75h-.03l-.29 1.58.15-.08c1.12-.47 1.89-1.62 2.31-3.52l.23-1.57.08-1.45.03-.42.1-1.53c.06-.44.13-.77.21-1.04l.06-.18.1.16c.38.61 1.37 1.42 1.92 1.8 0 0 .07.04.15.1-.09.02-.17.06-.17.06-1.77.67-2.08 1.95-1.87 2.61.15.43.52.75.81.86.39.14 1 .16 1.53-.15 1.13-.62 1.74-1.82 1.52-3.06l-.05-.23-.15-.53c-.08-.27-.38-.63-.89-1.12l-1.24-1.05-.44-.36c-.29-.26-.47-.6-.56-.97l-.03-.15-.11.06-1.43 1.05c-.21.61-.28 1.65-.31 2.51Zm-2.02-4.73c-.35.75-.47 1.92-.26 2.4.08.18.35.17.84-.03.19-.09.31-.18.42-.38.26-.41.38-1.06.23-1.39-.08-.23-.3-.32-.7-.27.04-.42.04-.5.22-1.16-.07 0-.13.04-.18.06-.19.07-.34.28-.57.76Zm-17.76-1.82c-1.65 4.01-1.51 8.66-.3 12.29 1.24 3.76 3.17 6.48 5.59 7.87 1.42.83 3.21.93 4.6.46 1.74-.59 3.08-1.86 4-3.74 1.96-4.1 1.63-10.41.14-14.5.76-.61 1.54-1.75 2.03-2.84l-1.22-.44c-.3.72-.81 1.42-1.31 1.95-2.27-5.97-5.22-9.01-8.39-8.84-1.85.09-3.42.9-4.42 2.36-1.06 1.52-1.4 3.61-.74 5.44Zm22.53 85.26c5.9-1.92 8.1-11.28 4.96-20.91-3.15-9.66-10.47-15.9-16.36-13.97-4.89 1.6-7.23 8.37-6.07 16.15.37-1.29 1.11-2.35 2.19-2.93 2.93-1.64 7.31.65 9.77 5.09 2.47 4.43 2.07 9.35-.87 10.98-1.86 1.05-4.29.5-6.45-1.16 3.63 5.28 8.6 8.15 12.83 6.75m23.35-9.54c5.99-1.6 8.71-10.83 6.11-20.62-2.61-9.8-9.57-16.47-15.55-14.86-5.26 1.4-8 8.7-6.84 17.07.43-1.12 1.14-1.99 2.14-2.47 2.79-1.36 6.69.99 8.73 5.2 2.04 4.22 1.42 8.74-1.37 10.07-1.47.71-3.25.4-4.9-.68 3.28 4.74 7.69 7.34 11.67 6.29Zm-28.59-37.98c21.25.47 34.66-3.97 53.02-14.93 16.78-11.71 33.86-22.08 33.86-22.08s-34.67 7.69-56.51 10.42c-23.55 2.69-44.37 18.91-44.37 18.91-8.95 5.91.08 5.81 14 7.69Zm65.46-15.37c21.16-7.18 38.36-17.85 35.3-22.05-1.25-1.7-35.3 22.05-35.3 22.05m-73.68-4.42c-2.98.57-5.38-3.87-6.31-7.08-.62-2.18-.65-4.65-.01-6.85 2.75 1.73 5.32 1.7 8.33-.01.63 1.97 1.06 4.81 1.08 6.97.02 1.75-.17 4.13-1.1 5.57-.58.89-1.09 1.22-2 1.41Zm-2.59-15c-1.51-.57-2.79-1.79-3.39-3.19-.56-1.33-.52-2.8.13-3.78.49-.75 1.25-1.15 2.18-1.16 2.24-.01 4.24 4.28 5.29 7.88-1.58.8-2.89.76-4.21.24Zm15.43 5.66c.23-.46.74-.82 1.56-1.07.04.03.11.09.11.09.06.06.09.15.13.23.22.52.16.96.03 1.24-.12.34-.34.57-.72.72-.36.14-.73.08-.98-.19s-.29-.67-.12-1.03Z"/><path fill="#fff" d="m80.08 132.39 1.84 3.68.82 1.61h.04l26.23-13.86c-14.79 6.94-28.93 8.57-28.93 8.57m62.96-3.93c-4.89 1.6-7.23 8.37-6.07 16.15.38-1.29 1.11-2.35 2.19-2.93 2.93-1.64 7.31.65 9.77 5.09 2.47 4.44 2.06 9.35-.88 10.98-1.85 1.05-4.28.51-6.44-1.16 3.63 5.29 8.6 8.13 12.85 6.75 5.88-1.91 8.09-11.28 4.94-20.91-3.15-9.66-10.47-15.9-16.36-13.97m25.32-10.14c-5.26 1.39-8 8.69-6.83 17.07.43-1.13 1.14-2.01 2.13-2.47 2.79-1.35 6.69.99 8.73 5.2 2.04 4.23 1.42 8.74-1.37 10.07-1.47.71-3.25.39-4.9-.69 3.28 4.74 7.69 7.34 11.67 6.29 5.99-1.6 8.71-10.82 6.12-20.62-2.62-9.79-9.57-16.46-15.55-14.86"/></svg>