<svg xmlns="http://www.w3.org/2000/svg" viewBox="0 0 300 300"><title>Boston Red Sox cap on light logo</title><path fill="#fff" d="M219.31 171.12c-2.7-9.6-5.72-16.22-10.81-20.88 5.09-4.63 8.11-11.26 10.81-20.88 3.33-11.85 5-20.54 17.94-26.36-19.41-8.93-21.27-19.81-26.64-34.18-5.92-15.82-25.17-35.56-53-35.56-11.68 0-22.49 3.56-31.27 9.57-6.16-5.82-14.4-9.41-23.47-9.41-19.03 0-34.46 15.69-34.46 35.02 0 7.13 2.08 13.76 5.66 19.28 2.1-8.67 8.71-15.31 15.7-15.21 7.3.1 13.38 7.09 13.39 15.8l-.02 35.2c0 12.89-13.17 23.13-30.23 26.72 17.06 3.6 30.23 13.85 30.23 26.72l.02 35.21c0 8.7-6.09 15.68-13.39 15.8-6.99.1-13.6-6.56-15.7-15.21-3.58 5.52-5.66 12.15-5.66 19.25 0 19.36 15.43 35.04 34.46 35.04 9.07 0 17.32-3.56 23.47-9.41 8.78 6.02 19.59 9.56 31.27 9.56 27.83 0 47.07-19.69 53-35.57 5.37-14.32 7.22-25.21 26.64-34.16-12.94-5.78-14.61-14.48-17.95-26.36m-44.53 38.35c0 7.81-7.42 14.31-16.57 14.31-6.18 0-11.39-2.29-14.42-6.03v-42.07c3.03-3.76 8.24-5.88 14.42-5.88 9.15 0 16.57 6.33 16.57 14.14 0 5.12-4.43 9.71-9.53 12.77 5.1 3.06 9.53 7.66 9.53 12.77m-.01-93.06c0 7.82-7.42 14.15-16.57 14.15-6.18 0-11.39-2.12-14.42-5.87V82.61c3.03-3.76 8.24-5.86 14.42-5.86 9.15 0 16.57 6.31 16.57 14.11 0 5.12-4.43 9.72-9.53 12.77 5.1 3.07 9.53 7.66 9.53 12.77"/><path fill="#0d2b56" d="M157.65 159.11c15.42 0 27.91 11.03 27.91 24.63 0 4.8-1.55 9.27-4.25 13.09 2.7 3.8 4.25 8.28 4.25 13.08 0 13.59-12.49 24.63-27.91 24.63-10.68 0-19.96-5.29-24.66-13.06v-49.31c4.7-7.75 13.98-13.05 24.66-13.05Zm20.99 50.805c-.002-5.158-2.641-9.846-6.86-13.065 4.22-3.25 6.86-7.91 6.86-13.09 0-9.77-9.42-17.69-20.99-17.69-7.44 0-14 3.26-17.73 8.21v45.11c3.72 4.93 10.28 8.21 17.73 8.21 11.568 0 20.987-7.937 20.99-17.685m16.71 43.575h2.94v.6h-1.12v3.06h-.71v-3.06h-1.11Zm6.7 0h1.01v3.66h-.65v-2.84h-.02l-1.08 2.84h-.51l-1.08-2.84h-.02v2.84h-.66v-3.66h1.03l1 2.61Zm14.83-76.77c3.46 10.1 5.75 16.31 13.1 20.66-26.18 15.18-13.54 28.97-35.26 50.67-18.76 18.76-48.25 20.25-68.69 4.47-5.66 6.34-13.87 10.34-23.02 10.34-17.02 0-30.81-13.79-30.81-30.8 0-3.66.63-7.2 1.82-10.48 2.94 6.1 8.77 10.22 15.5 10.22 9.66 0 17.5-8.55 17.5-19.14v-35.04c0-3.68-1.23-19.99-22.23-27.41 21-7.39 22.23-23.71 22.23-27.39V87.77c0-10.56-7.84-19.15-17.5-19.15-6.73 0-12.57 4.16-15.51 10.25a30.7 30.7 0 0 1-1.82-10.49c0-17.01 13.79-30.8 30.8-30.8 9.15 0 17.37 3.99 23.02 10.34 20.44-15.8 49.93-14.31 68.69 4.45 21.72 21.72 9.07 35.5 35.26 50.67-7.35 4.38-9.64 10.58-13.1 20.69-2.12 6.23-2.85 18.22-14.81 26.49 11.96 8.29 12.69 20.28 14.81 26.52Zm1.81 19.96c-4.04-5.01-6.09-11.05-8.37-17.73-.5-1.43-.88-2.99-1.31-4.64-1.21-4.81-6.01-17.43-16.38-24.09 10.36-6.64 15.17-19.29 16.38-24.09.43-1.63.81-3.21 1.31-4.64 2.27-6.67 4.32-12.7 8.37-17.72-10.01-7.91-12.74-15.93-15.41-23.72-2.46-7.26-4.8-14.1-13.49-22.78-17.63-17.64-46.89-17.06-64.54.57-3.79-8.22-12.65-13.34-22.27-13.34-11.67 0-21.41 8.42-23.47 19.47 3.03-1.43 6.43-2.25 9.99-2.25 13.46 0 24.43 11.7 24.43 26.05v35.06c0 6.07-2.34 18.41-14.33 27.39 12 8.96 14.33 21.33 14.33 27.41v35.04c0 14.38-10.97 26.08-24.43 26.08-3.55 0-6.96-.81-9.99-2.3 2.06 11.08 11.8 19.5 23.47 19.5 9.62 0 18.49-5.12 22.27-13.35 17.65 17.64 46.9 18.22 64.54.58 8.69-8.68 11.03-15.53 13.49-22.78 2.67-7.79 5.41-15.8 15.41-23.72M157.65 65.91c15.42 0 27.91 11.03 27.91 24.63 0 4.8-1.55 9.3-4.25 13.09 2.7 3.8 4.25 8.28 4.25 13.08 0 13.59-12.49 24.63-27.91 24.63-10.68 0-19.96-5.28-24.66-13.06V79c4.7-7.78 13.98-13.08 24.66-13.08Zm20.98 50.805c-.002-5.178-2.641-9.856-6.86-13.065 4.22-3.25 6.86-7.91 6.86-13.09 0-9.77-9.42-17.69-20.99-17.69-7.44 0-14 3.27-17.73 8.21v45.11c3.72 4.94 10.28 8.21 17.73 8.21 11.568 0 20.987-7.947 20.99-17.685"/><path fill="#bd3039" d="M209.01 174.31c-1.22-4.8-6.03-17.44-16.39-24.09 10.36-6.65 15.17-19.28 16.39-24.09.42-1.62.81-3.19 1.3-4.64 2.27-6.66 4.34-12.69 8.37-17.72-9.99-7.92-12.73-15.93-15.4-23.72-2.46-7.26-4.8-14.11-13.48-22.78-17.64-17.64-46.91-17.06-64.54.57-3.79-8.21-12.66-13.34-22.28-13.34-11.66 0-21.41 8.42-23.47 19.47 3.03-1.43 6.44-2.27 9.99-2.27 13.46 0 24.42 11.7 24.42 26.06v35.05c0 6.09-2.33 18.43-14.32 27.39 11.99 8.98 14.32 21.33 14.32 27.41v35.04c0 14.38-10.96 26.08-24.42 26.08-3.56 0-6.96-.81-9.99-2.3 2.06 11.08 11.81 19.5 23.47 19.5 9.62 0 18.48-5.12 22.28-13.35 17.64 17.66 46.9 18.23 64.54.58 8.68-8.68 11.02-15.54 13.48-22.78 2.67-7.79 5.4-15.8 15.4-23.72-4.03-5.01-6.1-11.05-8.37-17.73-.5-1.43-.89-2.98-1.3-4.64m-23.46 35.62c0 13.59-12.5 24.63-27.91 24.63-10.68 0-19.96-5.29-24.66-13.06v-49.31c4.7-7.75 13.98-13.05 24.66-13.05 15.41 0 27.91 11.03 27.91 24.63 0 4.8-1.55 9.27-4.25 13.09 2.7 3.78 4.25 8.27 4.25 13.07m0-93.2c0 13.59-12.5 24.63-27.91 24.63-10.68 0-19.96-5.29-24.66-13.06V79c4.7-7.78 13.98-13.08 24.66-13.08 15.41 0 27.91 11.03 27.91 24.63 0 4.8-1.55 9.3-4.25 13.09 2.7 3.79 4.25 8.27 4.25 13.07"/></svg>