<svg xmlns="http://www.w3.org/2000/svg" viewBox="0 0 300 300"><title>Chicago Cubs cap on light logo</title><path fill="#fff" d="M38 151C38 88.59 88.59 38 150.98 38s113.01 50.59 113.01 113-50.59 113-113.01 113S38 213.41 38 151"/><path fill="#cc3433" d="M209.99 168.75h-14.07c-7.39 0-6.01-9.44-6.01-11.96h12.24s-.34 1.84.3 3c.97 1.76 5.27 1.67 5.27-.47v-1.89s.51-2.97-2.04-2.97h-8.99c-7.13 0-6.77-5.17-6.77-7.51s-.2.42 0-5.94c.21-6.34 3.19-8.47 8.63-8.47 2.26 0 9.5 0 11.46-.03 8.5 0 10.05 2.69 10.05 11.15h-13.04v-1.68c0-2.76-5.01-2.23-5.01-.54 0 1.06-.53 4.56 1.87 4.56h8.86c4.27 0 7.33 2.76 7.29 7.01 0 .72.04 7.4.04 8.11 0 5.85-3.43 7.65-10.05 7.65Zm-71.11-11.4v-24.82h12.3v25.12c0 9.02-2.13 11.13-9.29 11.13H129.1c-5.9 0-7.8-3.81-7.8-11.79v-24.46h12.29v24.82c0 3.38 5.29 3.38 5.29 0m16.75 11.42v-36.25h19.41c7.31 0 10.45 1.72 10.45 10.2 0 4.45-.85 6.77-3.39 8.05 3.39 1.9 3.39 5.51 3.39 8.69 0 8.04-3.56 9.31-10.45 9.31Zm50.04 22.94C193.19 208.28 173.33 219 150.96 219c-37.79 0-68.45-30.66-68.45-68.44s30.65-68.45 68.45-68.45c22.61 0 42.64 10.95 55.12 27.86l-20.09 19.6c-7.15-11.88-20.17-19.84-35.03-19.84-22.55 0-40.82 18.27-40.82 40.83s18.27 40.84 40.82 40.84c14.42 0 27.09-7.48 34.36-18.77Zm-31.9-49.31c-.04-1.48-1.44-1.37-5.23-1.37v5.08c2.12 0 5.23.22 5.23-1.7Zm-.09 14.77c-.65-1.74-1.01-1.53-5.14-1.53v5.08c2.65 0 5.14.22 5.14-1.69 0-.47.13-1.5 0-1.86"/><path fill="#0e3386" d="M150.96 44.89c58.36 0 105.68 47.32 105.68 105.67s-47.32 105.68-105.68 105.68S45.29 208.91 45.29 150.56 92.6 44.89 150.96 44.89m78.05 105.67c0-43.11-34.95-78.05-78.05-78.05s-78.05 34.95-78.05 78.05c0 43.11 34.95 78.07 78.05 78.07s78.05-34.96 78.05-78.07m-22.12 24.63h-2.09v5.72h-1.42v-5.73h-2.09v-1.24h5.6Zm8.09 5.73v-5.53h-.03l-2.01 5.53h-1.37l-1.94-5.53h-.05v5.53h-1.4v-6.96h2.45l1.62 4.57h.03l1.69-4.57h2.44v6.96Z"/></svg>