<svg xmlns="http://www.w3.org/2000/svg" viewBox="0 0 300 300"><title>Cincinnati Reds cap on light logo</title><path fill="#c6011f" d="M162.6 92.98c31.83 0 56.96 14.69 65.02 27.44h38.27c-17.75-35.05-63.56-56.17-109.38-56.17S77.12 90.2 57.4 113.58c-19.14 22.66-27.93 29.93-31.29 32.21-1.24.84-1.76 1.02-1.76 1.02 17.02 12.55 23.59 22.63 34.1 33.79 25.62 27.21 47.38 50.95 102.71 50.95 48.46 0 85.95-23.94 103.59-53.4h-37.84c-17.71 13.45-39.4 24.3-66.96 24.3-25.46 0-52.05-10.62-64.89-30.02-4.94-7.48-7.85-16.25-7.85-26.23 0-17.23 21.24-53.21 75.37-53.21Z"/><path d="M164.42 99.3c-52.91 0-73.35 34.73-73.35 51.96 0 5.92.77 15.08 4 21.16-4.94-7.48-7.85-16.25-7.85-26.23 0-17.23 21.24-53.21 75.37-53.21 31.83 0 56.96 14.69 65.02 27.44h38.27s1.8 4.86 2.53 6.32h-40.07c-8.06-12.75-32.08-27.44-63.91-27.44Zm-3.24 132.24c48.45 0 85.95-23.94 103.59-53.4l2.65 6.2c-17.63 29.46-55.14 53.4-103.58 53.4-55.34 0-76.72-21.42-102.35-48.63-10.51-11.15-17.27-20.82-33.63-34.21l-3.5-8.09c17.02 12.56 23.59 22.63 34.1 33.79 25.62 27.21 47.37 50.95 102.71 50.95Zm98.04-17.97h-3.19v8.66h-2.15v-8.66h-3.19v-1.89h8.53Zm12.27 8.65v-8.39h-.05l-3.06 8.39h-2.08l-2.95-8.39h-.04v8.4h-2.15v-10.55h3.73l2.44 6.9h.06l2.54-6.9h3.71v10.54Z"/></svg>