<svg xmlns="http://www.w3.org/2000/svg" viewBox="0 0 300 300"><title>Cleveland Guardians cap on light logo</title><path fill="#002b5c" d="M172.93 180.34v30.69c-7.96 2.75-15.99 5.11-24.51 7.06-7.93-2.41-15.56-5.03-22.96-7.91-.05-40 .41-79.99 1.16-119.98 7.55-3.16 15.86-6.32 22.98-8.7 7.69 2.39 14.84 4.95 22.18 7.75.31 7.24.16 18.01-.04 36.13 7.31 1.38 22.93.2 40.33-2.17.79-5.93 1.78-11.86 2.77-17.79 3.56-21.35 6.92-42.3 9.88-61.87-15.42-2.37-32.22-3.76-40.52-2.57l-3.17 8.53c-10.07-5.03-20.36-9.79-31.42-14.26-25.5 9.88-48.83 20.56-72.55 32.81 4.55 22.34 6.33 39.93 6.33 69.38 0 42.9-2.97 75.71-8.11 97.26 24.12 11.47 47.44 21.35 72.75 30.05 23.92-8.3 47.84-17.4 75.12-30.44-2.37-15.22-7.31-41.12-11.07-57.33-12.65.4-25.7 1.58-39.14 3.36Z"/><path fill="#e31937" d="M179.65 186.27v29.54c-10.09 3.67-20.44 6.87-31.63 9.2-9.99-3.05-19.83-6.39-29.27-10.26-.09-42.96.41-86.06 1.23-129.02 9.39-4.11 20.59-8.35 29.42-11.35 10.16 3.02 19.29 6.41 28.74 10.09.64 7.1.55 17.22.32 34.78 6.92.2 16.61-.59 27.67-1.98 3.76-23.33 7.51-46.45 10.87-68-10.67-1.38-20.95-2.17-28.07-1.98l-4.28 11.59c-11.35-5.84-22.75-11.24-35.05-16.33-22.73 8.9-43.69 18.38-65.04 29.26 3.95 20.36 5.53 38.15 5.53 65.63 0 39.93-2.57 71.56-7.12 93.5 21.55 10.08 42.5 18.78 65.04 26.69 23.13-8.11 45.86-16.8 67.41-27.08-1.19-9.09-5.14-30.64-8.7-46.65-8.9.4-17.79 1.19-27.08 2.37Z"/><path fill="#002b5c" d="M209.35 256.47h-3.04v8.28h-2.06v-8.28h-3.04v-1.8h8.14zm13.79 8.28h-2.06v-8.02h-.05l-2.91 8.02h-1.99l-2.83-8.02h-.04v8.02h-2.06v-10.08h3.57l2.34 6.58h.05l2.44-6.58h3.54z"/></svg>