<svg xmlns="http://www.w3.org/2000/svg" viewBox="0 0 300 300"><title>Colorado Rockies cap on light logo</title><path d="M262.4 251.29v7.96h-1.62v-6.33h-.05l-2.3 6.33h-1.57l-2.23-6.33h-.04v6.33h-1.63v-7.96h2.82l1.85 5.2h.04l1.93-5.2Zm-17.32 0h6.42v1.42h-2.4v6.54h-1.62v-6.54h-2.4Zm-19.59-7.48c7.28 6.34 15.1 5.06 15.1 5.06v10.37s-38.95.03-41.4.03c-.95 0-35.61-58.57-35.61-58.57h-9.4v29.72c0 16.42 5.15 18.41 18.99 18.41v10.43h-67.24v-10.43c14.9 0 18.45-3.33 18.45-19.52v-43.77c-.41.01-.81.04-1.22.04-24.06 0-40.59-10.1-50.82-24.02-10.24-13.92-14.73-31.43-14.73-46.92 0-22.44 7.18-41.08 19.76-54.77 12.39-13.47 30.17-21.1 51-21.1 19.21 0 29.8 6.74 34.29 6.74 1.63 0 2.53-.9 3.24-3.15h6.66l1.61 46.92h-8.44c-1.97-11.45-6.46-20.88-12.75-27.39s-14.19-10.1-23.17-10.1c-23.88 0-40.23 24.47-40.23 59.26 0 32.86 13.8 56.24 34.81 60.68v-19.84c0-16.63-3.2-20.18-18.45-20.18v-10.43c10.81-.89 18.09-1.55 32.28-2.44 11.18-.66 22.18-1.11 28.21-1.11 28.39 0 56.78 9.93 56.9 40.59-.12 28.35-26.34 34.47-30.51 36.56 11.37 2.56 25.13 41.51 32.67 48.92ZM65.02 113.54c-.04 47.6 35.15 56.59 35.15 56.59s-18.11-22.75-18.06-59.27c.07-39.32 19.41-58.06 19.41-58.06s-36.45 14.28-36.49 60.74Zm81.94 15.3-15.32 1.06v118.88h15.32Zm67.33 30.08c-.08-26.51-28.03-29.03-28.03-29.03s10.11 6.46 10.1 29.29c-.01 22.61-10.56 28.97-10.56 28.97s28.57-5.89 28.49-29.24Zm-25.14-1.5c0-17.52-9.06-29.05-26.27-29.05h-8.69v35.46c6.38-5.75 11.74-14.37 16.03-25.87h8.44c-1.43 12.8-5.75 29.42-10.95 44.68l-.55 1.57c-1.61-.67-3.42-1.12-5.21-1.34-1.62-.45-3.59-.45-5.75-.45-.65 0-1.34.04-2.01.06v7.33c25.74.44 34.96-9.54 34.96-32.39m10.88 91.42 21.85.05s-4.55-3.62-10.92-16.37c-5.91-14.13-16.97-31.41-24.71-35.3 0 0-2.16.85-5.12 1.69-3.25.94-9.91 1.99-9.91 1.99 9.07 12.64 28.81 47.94 28.81 47.94"/><path fill="#c4ced4" d="M210.95 232.52c6.36 12.74 10.92 16.37 10.92 16.37l-21.85-.05s-19.74-35.3-28.81-47.94c0 0 6.66-1.05 9.91-1.99 2.96-.84 5.12-1.69 5.12-1.69 7.74 3.89 18.8 21.17 24.71 35.3m-14.59-73.36c.01-22.83-10.1-29.29-10.1-29.29s27.95 2.52 28.03 29.03c.08 23.36-28.49 29.24-28.49 29.24s10.56-6.36 10.56-28.97Zm-64.72-29.26 15.32-1.06v119.94h-15.32Zm-30.11-77.1s-19.34 18.74-19.41 58.06c-.06 36.52 18.06 59.27 18.06 59.27s-35.19-8.99-35.15-56.59c.03-46.45 36.49-60.74 36.49-60.74Z"/></svg>