<svg xmlns="http://www.w3.org/2000/svg" viewBox="0 0 300 300"><title>Colorado Rockies cap on light logo</title><path fill="#0a2240" d="M219.24 189.77v-93.4c.57-7.92 2.58-10.49 8.4-15.93-12.88-4.87-27.76-19.94-35.68-35.87-39.97 20.42-84.34 20.42-117.92-9.16-3.34-2.96-7.16-4.48-4.58 1.14 9.44 20.61 29.19 33.39 51.33 39.12-12.78 10.97-20.32 17.55-21.94 31.48-10.88.86-22.61 8.78-26.33 16.22-4.2 8.4 2 8.59 6.3 5.72 5.44-3.72 13.07-5.15 19.65-4.87v10.59c-10.88.76-21.66 8.78-25.38 16.22-4.2 8.4 2 8.59 6.3 5.72 5.44-3.72 12.5-5.72 19.08-5.44v31.86c0 12.5-6.3 18.79-9.92 22.23-3.72 3.43-1.62 6.96 3.72 4.87 11.26-4.48 22.99-15.17 25.66-31.48 4.29.57 9.44.67 13.07 0v4.39c0 12.5-6.3 18.79-10.02 22.23q-.1.1-.1.19c-11.93 1.05-22.71 5.06-31.2 11.73-19.65 15.07-22.61 43.6-19.65 49.9.19.38 10.97-35.2 42.93-39.02 18.51-2.19 41.21 3.43 60.58 20.23 11.93-19.94 32.25-31.29 55.81-35.3-7.92-9.16-9.92-13.07-10.11-23.37M193.58 84.92v27.95c-12.78 3.82-31.2 3.72-42.74-.48v-3.63c0-9.92.86-22.42 8.97-30.34 7.82-.86 15.36-2.48 22.32-4.96l11.45 11.45Zm-42.74 37.3c11.54 4.1 29.96 4.29 42.74.38v27.19c-12.78-3.82-31.2-3.72-42.74.38zm-.77-43.12c-6.01 5.25-11.16 10.11-14.6 15.74-4.58-1.53-8.78-2.39-12.78-2.67 2.67-5.25 6.39-10.21 10.97-14.02 5.44.76 10.97 1.05 16.41.95m-31.67 91.59v-61.82c0-2.77.48-5.63 1.24-8.49 4.48-.48 8.97 0 12.88 1.34-.95 2.96-1.43 6.01-1.43 9.54l-.1 59.15c-3.24.67-8.2.76-12.59.29Zm48.94 44.74c-12.4-6.11-24.52-9.25-35.97-9.92 10.21-6.87 19.46-18.99 19.46-35.01v-10.49c11.54-4.1 29.96-4.29 42.74-.38v40.45c-8.01 2.29-17.65 7.92-26.24 15.36Zm55.62 15.46h4.1v10.78h3.15v-10.78h4.1v-2.58h-11.35m23.66 0-3.05 7.82-2.96-7.82h-4.67v13.36h2.96v-10.78l3.91 10.78h1.72l4.01-10.78v10.78h2.86v-13.36"/></svg>