<svg xmlns="http://www.w3.org/2000/svg" viewBox="0 0 300 300"><title>Washington Nationals cap on light logo</title><path fill="#ab0003" d="M233.99 51.1c-19.46-15.6-37.14 3.9-37.14 15.07 19.49 4.14 36.86 23.64 29.07 74.27-6.34 41.38-30.76 67.16-46.14 67.66 12.75-17.42 21.31-37.1 25.98-56.35 13.96-57.45-8.39-76-26.09-76.87-21.5-1.07-43.01 28.21-49.02 62.76-4.74 27.38-4.16 55.34 12.51 75.83-14.72 18.6-50.11 24.34-43.9-20.46 5.21-37.5 23.84-78.84 34.14-99.17l.31-.54c5.53-11.32 9.92-19.36 11.81-22.55l-4.15-.05c-40.28.69-72.27 9.98-87.21 30.37-13.99 19.09-14.39 39.18-2.84 51.12l1.69 1.67c3.38 3.41 7.82 5.16 12.24 5.16h.03c3.98 0 8.03-1.49 11.07-4.55 3.05-3.03 4.55-7.09 4.54-11.08 0-4.43-1.77-8.87-5.17-12.25a17.9 17.9 0 0 0-6.06-3.98l.07-.12c.3-.73.66-1.44 1.05-2.13 2.7-4.74 7.42-9.05 13.57-12.15 4.83-2.43 10.53-4.1 16.69-4.72l-.97 2.08c-8.54 15.82-21.02 45.94-24.95 61.65-12.28 49.12 7.57 77.89 29.03 81.9 25.84 4.82 45.68-7.71 56.16-23.89 12.5 7.93 45.51 12.5 70.32-31.67 28.55-50.91 29.59-125.97 3.37-147Zm-73.03 145.48c-4.91-11.93-7.15-25.98-7.15-39.32 0-16.1 3.21-31.07 8.77-39.86 3.67-5.78 8-8.58 12.92-8.27 1.75.14 3.73.71 5.13 4.07 1.14 2.73 1.66 6.34 1.66 10.55 0 21-12.55 56.8-21.33 72.82Zm75.6 14.53h-1.97v5.36h-1.34v-5.36h-1.97v-1.16h5.27v1.16Zm8.95 5.36h-1.33v-5.19h-.02l-1.92 5.19h-1.27l-1.83-5.19h-.06v5.19h-1.31v-6.52h2.28l1.54 4.27h.02l1.59-4.27h2.29v6.52Z"/></svg>