<svg xmlns="http://www.w3.org/2000/svg" viewBox="0 0 300 300"><title>New York Mets cap on light logo</title><path fill="#ff5910" d="M225.63 191.83c0-2.61-.82-5.17-2.29-7.34-2.35 3.64-6.1 5.36-10.37 4.32-3.78-.89-6.78-3.61-6.81-6.12v-57.37l.8.32c4.28 1.75 7.39 5.85 8.31 10.95.18.98.27 1.99.27 2.99 0 3.48-1.31 6.57-3.41 9.06 3.92-.81 15.47-4.31 15.47-18.91 0-13.47-10.87-21.71-20.99-23.68l-.46-.09V65.85c.04-2.51 3.03-5.23 6.81-6.13 4.27-1.05 8.02.69 10.37 4.32 1.47-2.17 2.29-4.72 2.29-7.34 0-3.52-1.32-7.12-3.86-9.95-5.63-6.21-14.94-6.23-24.91-.06l-.32.22-.3-.22c-9.98-6.17-19.29-6.15-24.92.06a14.84 14.84 0 0 0-3.86 9.95c0 2.62.8 5.17 2.29 7.34 2.36-3.63 6.11-5.37 10.39-4.32 3.76.9 6.76 3.61 6.8 6.13v44.83l-.32.17c-7.8 4.04-14.77 9.75-20.76 16.95l-.44.53-.46-.55s-51.23-62.12-51.35-62.61c.56-2.63 3.99-5.13 7.8-5.68 3.88-.53 7.15 1.23 9.31 4.55 1.47-2.17 2.28-4.72 2.28-7.34 0-3.52-1.31-7.12-3.86-9.95-5.63-6.21-14.95-6.23-24.92-.06l-.3.22-.3-.22c-9.98-6.17-19.29-6.15-24.92.06-2.56 2.83-3.87 6.43-3.87 9.95 0 2.62.81 5.17 2.29 7.34 2.37-3.63 6.12-5.37 10.39-4.32 3.76.9 6.77 3.61 6.8 6.13v40.24l-.46.09c-10.11 2.24-20.33 10.39-20.33 23.55 0 14.61 11.6 18.11 15.5 18.91-2.07-2.47-3.41-5.59-3.41-9.1 0-.81.07-1.62.19-2.44.74-5 3.6-9.16 7.69-11.12l.82-.42v57.14c-.03 2.51-3.03 5.23-6.8 6.13-4.28 1.04-8.02-.68-10.39-4.32-1.48 2.17-2.29 4.72-2.29 7.32 0 3.53 1.31 7.14 3.87 9.96 5.63 6.23 14.94 6.24 24.91.09l.3-.2.3.2c9.98 6.15 19.29 6.14 24.92-.09 2.56-2.82 3.86-6.43 3.86-9.95 0-2.6-.82-5.16-2.28-7.33-2.37 3.64-6.13 5.36-10.41 4.32-3.76-.89-6.75-3.61-6.8-6.13v-52.92l.92.62c14.2 9.68 25.17 29.47 26.48 41.96v65.48c0 6.98-4.72 12.31-9.25 13.47-3.21.79-6.01-.6-7.96-3.54-1.44 2.14-2.25 4.58-2.25 7.07 0 3.11 1.12 6.21 3.36 8.67 5.53 6.11 15.03 5.91 25.4-.52l.32-.2.32.2c10.37 6.43 19.87 6.63 25.4.52 2.23-2.45 3.36-5.56 3.36-8.67 0-2.49-.82-4.93-2.26-7.07-1.89 2.82-4.56 4.15-7.67 3.37-4.62-1.17-9.54-6.78-9.54-13.29v-64.59c.3-4.44 2.02-10.19 4.86-16.15l.39-.84.6.72s20.81 25.57 20.94 26c-.26 2.57-3.44 5.19-7.25 5.95-1.99.39-6.77.62-9.97-4.32-1.43 2.15-2.23 4.65-2.23 7.25 0 3.51 1.29 7.11 3.86 9.93 5.63 6.23 14.94 6.24 24.91.09l.3-.2.32.2c9.97 6.15 19.27 6.14 24.91-.09 2.55-2.82 3.87-6.43 3.87-9.94Zm-75.09-36.8-.51-1.34c-9.64-25.43-25-37.53-36.18-43.21l-.33-.14V92.51l41.63 51.14.2.3zm36.4-.58-11.39-13.82.32-.36c3.19-3.73 6.62-6.88 10.15-9.39l.93-.66v24.24Zm62.37 23.79-2.17 5.88h-.06l-2.08-5.88h-3.18v8.99h1.83v-7.15h.05l2.51 7.15h1.78l2.61-7.15h.03v7.15h1.85v-8.99m-19.54 1.61h2.7v7.37h1.84v-7.37h2.7v-1.62h-7.25"/></svg>