<svg xmlns="http://www.w3.org/2000/svg" viewBox="0 0 300 300"><title>Athletics cap on light logo</title><path fill="#003831" d="M231.96 197.61c.75-.75 7.19 0 3.97 4.7-3.22 4.71-30.31 45.33-30.31 45.33-9.85 15.4-25.49 3.81-32.28-16.57l-17.13-51.43h-48.6l-13.18 38.82c7.63 2.25 14.57 5.8 19.97 10.37 10.22-10.02 23.86-7.21 25.57-5.5L115 254c-39.63-28.77-83.33-10.04-89.29-.54 6.56-26.73 27.96-37.51 49.28-37.72l25.57-75.26c.01-.02.02-.04.02-.06 8.53-25.09-20.01-25.74-27.89-18.59 2.96-28.49 28.45-31.05 40.47-18.43l3.03-8.92c4.02-11.83 3.97-18.47-6.03-24.42C98.58 63.16 86 71.54 79.1 81.4c7.03-30.82 27.7-39.77 46.76-34.84 12.49 3.95 19.84 14.01 23.81 25.94l42.96 129.01c4.54 13.6 13.07 24.83 39.34-3.92Zm-82.61-38.6-17.19-51.61-17.53 51.61Zm41.88-51.55h-5.18V91.67h15.49v14.58l-10.46 13.66h-4.42Zm66.53 20.05c12.44 2.47 32.36 19.06 16.87 37.86-18.69 22.64-48.53 4.05-56.17-4.83l8.53-11.59c12.58 11.4 29.26 14.54 33.58 7.89 5.12-7.9-5.21-12.54-13.25-14.55-19.7-4.93-37.06-16.52-21.81-37.97 11.08-15.6 38.46-13.56 49.68 1.97l-9.66 9.86c-6.38-9.61-24.82-10.36-27.46-2.71-3.14 9.08 7.24 11.59 19.68 14.05Zm-23.05 117.07V254h-1.93v-7.49h-.04l-2.73 7.49h-1.85l-2.65-7.49h-.05V254h-1.92v-9.42h3.34l2.18 6.15h.05l2.29-6.15Zm-20.49 0h7.61v1.68h-2.84V254h-1.93v-7.74h-2.84Z"/></svg>