<svg xmlns="http://www.w3.org/2000/svg" viewBox="0 0 300 300"><title>Pittsburgh Pirates cap on light logo</title><path fill="#fdb827" d="M194.28 178.59c-7.52-7.32-14.86-10.2-26.51-10.2l-48.09-.02v47.82c0 7.17 4.19 13.46 10.6 16.11l-10.6 25.67H89.97L79.38 232.3c6.41-2.76 10.59-8.82 10.59-16.11V94.88c0-7.28-4.19-13.35-10.59-16.11l10.59-26.48 77.81.11c11.64 0 18.99-1.72 26.51-9.05 4.51 15.09 18.47 32.15 36.57 36.64-6.86 11.78-8.39 23.65-8.39 34.58s2.69 21.4 9.56 33.19c-18.1 4.49-32.84 15.73-37.74 30.82Zm-74.45-36.56h61.58c11.03 0 15.85-4.67 15.85-13.22V92.14c0-8.14-6.11-14.29-15.85-14.29h-61.58Zm14.29 112.89h6.45v1.42h-2.41v6.55h-1.62v-6.55h-2.42Zm14.56 0h2.8v7.97h-1.62v-6.34h-.04l-2.32 6.34h-1.57l-2.24-6.34h-.03v6.34h-1.62v-7.97h2.82l1.85 5.21h.04Z"/><path d="m237.57 144.53 4.32 7.43-8.34 2.07c-16.71 4.15-29.11 14.08-33.16 26.56l-3.19 9.88-7.44-7.25c-6.33-6.18-12.09-8.37-22.01-8.37 0 0-31.98-.02-41.65-.02v41.37c0 4.5 2.6 8.49 6.62 10.15l5.95 2.46-14.7 35.6H85.62l-14.65-35.52 5.83-2.51c4.2-1.81 6.71-5.62 6.71-10.19V94.88c0-4.58-2.5-8.38-6.69-10.19l-5.77-2.49 14.54-36.37 82.17.12c11.21 0 16.36-1.69 22.01-7.21l7.63-7.45 3.05 10.21c3.9 13.04 16.13 28.3 31.95 32.23l8.35 2.07-4.33 7.43c-5.2 8.93-7.51 18.6-7.51 31.34 0 10.4 2.67 19.63 8.68 29.95Zm-117.88 23.81 48.09.02c11.64 0 18.99 2.87 26.51 10.2 4.9-15.08 19.64-26.33 37.74-30.82-6.87-11.79-9.56-22.27-9.56-33.19s1.53-22.79 8.39-34.58c-18.1-4.49-32.05-21.55-36.57-36.64-7.52 7.34-14.86 9.05-26.51 9.05l-77.81-.11-10.59 26.48c6.41 2.76 10.59 8.83 10.59 16.11v121.31c0 7.29-4.19 13.35-10.59 16.11l10.59 25.67h29.71l10.6-25.67c-6.4-2.64-10.6-8.94-10.6-16.11v-47.82Zm61.71-26.31h-61.58V77.85h61.58c9.75 0 15.85 6.15 15.85 14.29v36.67c0 8.55-4.82 13.22-15.85 13.22M126.27 84.3v51.29h55.14c9.41 0 9.41-3.61 9.41-6.78V92.14c0-4.84-3.6-7.84-9.41-7.84Z"/><path fill="#fff" d="m240.19 142.99 6.34 10.89-12.23 3.04c-15.71 3.9-27.3 13.09-31.03 24.57l-4.68 14.48-10.91-10.63c-5.75-5.62-10.78-7.52-19.91-7.52 0 0-33.48-.02-38.65-.02v38.37c0 3.29 1.87 6.18 4.77 7.38l8.73 3.61-16.61 40.24H83.64L67.1 227.3l8.54-3.69c3.11-1.33 4.89-4.05 4.89-7.43V94.87c0-3.39-1.78-6.09-4.88-7.43l-8.46-3.64 16.38-40.98 84.2.12c10.4 0 14.87-1.43 19.91-6.36l7.63-7.45 3.55-3.47 4.48 14.97c3.66 12.23 15.07 26.52 29.8 30.18l12.23 3.04-6.34 10.89c-4.92 8.44-7.11 17.64-7.11 29.83 0 9.85 2.55 18.62 8.27 28.44Zm-6.59 11.02 8.34-2.07-4.32-7.43c-6.01-10.31-8.68-19.55-8.68-29.95 0-12.73 2.31-22.4 7.51-31.34l4.33-7.43-8.35-2.07c-15.82-3.93-28.05-19.18-31.95-32.23l-3.05-10.21-7.63 7.45c-5.66 5.52-10.8 7.21-22.01 7.21l-82.17-.12-14.54 36.37 5.77 2.49c4.18 1.81 6.69 5.62 6.69 10.19v121.31c0 4.57-2.51 8.38-6.71 10.19L71 228.88l14.65 35.52H124l14.7-35.6-5.95-2.46c-4.02-1.65-6.62-5.64-6.62-10.15v-41.37c9.67 0 41.65.02 41.65.02 9.92 0 15.68 2.19 22.01 8.37l7.44 7.25 3.19-9.88c4.05-12.49 16.45-22.41 33.16-26.56Zm-52.19-18.42h-55.14V84.3h55.14c5.81 0 9.41 3 9.41 7.84v36.67c0 3.18 0 6.78-9.41 6.78M129.27 87.3v45.28h52.13c6.41 0 6.41-1.18 6.41-3.77V92.14c0-4.21-4.02-4.84-6.41-4.84Z"/></svg>