<svg xmlns="http://www.w3.org/2000/svg" viewBox="0 0 300 300"><title>San Diego Padres cap on light logo</title><path fill="#2f241d" d="M202.63 84.46c18.12-.01 32.8 14.68 32.8 32.79v114.04c0 18.11-14.68 32.79-32.79 32.79h-92.31s5.52-7.93 5.52-23.01v-21.12H90.51c-13.89 0-25.14-11.26-25.14-25.14v-25.65h25.14s-4.04 3.47-4.04 18.51v4.52c0 4.68 3.79 8.48 8.48 8.48h20.9v-53.2h23.94v53.2h18.41c4.66 0 8.48-3.81 8.48-8.48v-45.27c0-4.69-3.8-8.49-8.49-8.49H89.03c-13.88 0-25.14-11.26-25.14-25.14V61.04c0-13.88 11.26-25.14 25.14-25.14h74.96c13.88 0 25.14 11.26 25.14 25.14v10.88h-25.14s2.45-2.8 3.09-7.47c.67-4.82-2.54-9.66-7.41-9.73H96.32c-4.67 0-8.49 3.82-8.49 8.49v47.46c0 4.69 3.8 8.49 8.49 8.49h19.54v-11.67c0-15.08-5.52-23.02-5.52-23.02h92.3Zm8.86 147.3V116.8c0-7.15-5.79-12.95-12.94-12.95h-58.76v15.31h25.69c13.88 0 25.14 11.26 25.14 25.14v50.52c0 13.89-11.26 25.14-25.14 25.14h-25.69v24.75h58.76c7.15 0 12.95-5.8 12.95-12.95Zm26.47 23.94v1.52h-1.92v6.87h-1.86v-6.87h-2.04v-1.52Zm6.3 0h1.86v8.39h-1.86v-4.66l-1.67 4.15h-.32l-1.67-4.15v4.66h-1.86v-8.39h1.86l1.83 4.64Z"/></svg>