<svg xmlns="http://www.w3.org/2000/svg" viewBox="0 0 300 300"><title>San Francisco Giants cap on light logo</title><path fill="#fd5a1e" d="M163 257.19v7.39h-1.84v-7.39h-2.7v-1.62h7.25v1.62Zm13.19 7.39v-7.16h-.06l-2.59 7.16h-1.78l-2.52-7.16h-.06v7.16h-1.82v-9.01h3.18l2.08 5.88h.05l2.18-5.88h3.16v9.01Zm-35.04-127.24v23.45s29.8 1.92 38.93-3.61c-1.63 5.18-1.12 22.12 0 24.94-11.53-5.92-38.93-3.56-38.93-3.56v23.6h44.16l9.41-10.94v-40.44l-10.9-12.65c-6.48-.72-29.64-.8-42.66-.8ZM72.83 53.46C82 49.09 91.76 39.85 95.22 33.63c8.84 4.17 90.09 3.56 99.48 0 5.67 8.28 11.75 12.91 20.34 15.72-.8 7.95-.56 10.76 2.03 17.13H194.7l-9.39-10.49h-79.67L95.2 65.18v42.25l10.4 10.07 13.17.55c0-15.69.16-18.69-11.38-21.75 3.84-7.7 4.62-8.6 5.63-18.2 9.88 3.32 111.98 1.51 116.42-1.03-.71 10 4.94 29 8.73 36.08H215.8c-1.14-7.78-6.05-13.79-13.86-15.25h-60.79v20.15s47.3 1.29 53.55-.86c3.11 8.08 14.29 19.92 22.37 23.2-2.71 16.48-2.21 44.66 0 61.76-8.8 4.37-17.79 13.34-22.37 22.39-11.13-3.06-53.56-1.56-53.56-1.56v12.66c2.19 8.64 6.83 10.72 14.97 11.42 0 0-6.54 12.3-6.81 19.5h-38.23c-.17-7.02-6.82-19.5-6.82-19.5 7.35-.34 13.38-4.69 14.5-11.42v-12.66s-13.42-.5-23.56 1.56c-3.07-6.89-14.26-19.22-22.39-22.39 1.88-4.95 1.01-35.84-1.73-42.35h24.12l-.02 31.43 9.4 10.94h14.18v-64.82s-12.41-.61-23.56.23c-3.2-6.23-12.78-16.28-22.39-21.02 3-11.41 3.27-52.33 0-63.1Z"/></svg>