<svg xmlns="http://www.w3.org/2000/svg" viewBox="0 0 300 300"><title>St Louis Cardinals cap on light logo</title><path fill="#be0a14" d="M238.05 254.4h.93c.07 0 .13.04.17.09l1.22 1.96c.04.07.15.07.19 0l1.22-1.96c.04-.06.1-.09.17-.09h.93c.11 0 .2.09.2.2v4.82a.2.2 0 0 1-.2.2h-.74a.2.2 0 0 1-.2-.2v-2.84c0-.11-.14-.15-.21-.06l-1.26 1.92h-.03l-1.25-1.9c-.06-.09-.21-.05-.21.06v2.81a.2.2 0 0 1-.2.2h-.73a.2.2 0 0 1-.2-.2v-4.82c0-.11.09-.2.2-.2Zm-5.21 1.06a.2.2 0 0 1-.2-.2v-.66c0-.11.09-.2.2-.2h3.93c.11 0 .2.09.2.2v.66a.2.2 0 0 1-.2.2h-1.19a.2.2 0 0 0-.2.2v3.76a.2.2 0 0 1-.2.2h-.75a.2.2 0 0 1-.2-.2v-3.76a.2.2 0 0 0-.2-.2Zm9.24-15.55c1.39 1.5 1.33 3.83-.13 5.3-9.64 9.68-21.4 14.38-35.96 14.38H93.6c-2.1 0-3.81-1.71-3.81-3.81v-14.95c0-1.36.81-2.74 2.15-2.99.44-.08 1.1-.04 1.81-.04 2.71 0 9.02-.44 9.02-4.51v-23.16c-5.5-2.35-9.79-4.36-12.48-5.67-1.39-.67-2.58-1.27-3.65-1.81-4.59-2.32-6.49-3.28-10.81-3.49-1.8.02-4.07.14-7.24.38-.15.02-.29.02-.43.02-1.3 0-2.48-.47-3.24-1.3-.61-.66-.92-1.49-.88-2.36-.04-.9.31-1.8.98-2.55 2.13-2.38 4.01-4.44 5.7-6.28 1.9-2.16 3.56-4.02 5.03-5.66l2.06-2.31c.71-.79 1.72-1.25 2.79-1.25h.3c.69 0 1.36.19 1.94.54 1.62.97 3.4 1.99 5.61 3.2 4.44 2.3 9.25 4.54 14.3 6.66v-31.84c-22.49-3.56-38.73-22.03-38.73-44.56s16.59-42.07 38.73-45.78v-7.1c0-3.98-3.24-7.21-7.21-7.21h-1.97c-2.1 0-3.81-1.71-3.81-3.81v-9.08c0-2.1 1.71-3.81 3.81-3.81h40.42c2.1 0 3.81 1.71 3.81 3.81v9.08c0 2.1-1.71 3.81-3.81 3.81h-2.01c-3.96 0-7.17 3.22-7.17 7.17v6.33c.78-.01 1.57-.01 2.36-.01 28.29 0 55.36 6.03 65.69 8.63 1.5.37 2.8.72 3.95 1.03 3.47.93 5.6 1.49 7.99 1.49s5.22-.52 10.43-1.92c.46-.13.92-.19 1.37-.19 1.47 0 2.74.67 3.38 1.79.61 1.06.57 2.34-.11 3.52-3.52 6.08-6.17 10.47-8.3 13.99l-1.62 2.69a3.73 3.73 0 0 1-3.21 1.82c-.42 0-.84-.07-1.25-.21-25.31-8.85-57.37-12.01-78.93-12.01h-1.74v49.5h34.51v-11.84h-.07c-8.65 0-13.63 2.08-13.63 2.08l-.07.03s-.97.24-1.38.24c-.83 0-1.57-.29-2.12-.85-1.13-1.14-1.11-2.98-1.11-4.08l-.05-11.08v-.07c.15-1.85 1.6-2.81 2.95-2.81l51.64-.03c1.35 0 2.8.97 2.96 2.81v.07l-.06 11.08c.01 1.1.02 2.94-1.11 4.08-.55.55-1.29.85-2.12.85-.41 0-1.38-.24-1.38-.24l-.07-.03c-.05-.03-4.98-2.08-13.63-2.08h-.07v8.81h-.02v3.08c15.06.45 29.02 5.14 39.4 13.26 9.96 7.79 15.68 18.02 15.68 28.06 0 15.22-6.8 27.55-19.67 35.67-11.43 7.21-27.32 11.02-45.97 11.02-5.02 0-10.21-.28-15.45-.84-9.49-1.01-18.31-2.68-29.17-5.55l.05 16.28c0 2.75 2.23 4.23 5.56 4.26h75.55c2.64 0 11.91-.65 20.21-8.96.73-.73 1.66-1.13 2.72-1.13s2.07.44 2.79 1.22l10.38 11.25Zm-117.26-43.89c15.34 4.31 30.58 6.58 44.12 6.58 27.9 0 45.23-9.27 45.23-24.2 0-7.53-4.21-13.36-12.51-17.32-8.28-3.95-17.79-4.68-21.67-4.8v13.21c0 .54.11 1.07.33 1.56l2.16 4.81c.42.94.34 2.02-.22 2.88s-1.51 1.38-2.54 1.38h-19.88a3.011 3.011 0 0 1-2.79-4.15l2-4.93c.19-.45.28-.94.28-1.43v-13.34h-34.51Zm-22.06-60.58V86.82c-10.93 3.24-18.46 12.94-18.46 24 0 12.63 7.37 22.39 18.46 24.62"/></svg>