<svg xmlns="http://www.w3.org/2000/svg" viewBox="0 0 300 300"><title>Tampa Bay Rays cap on light logo</title><path fill="#092c5c" d="M131.13 250.97v-6.96c1.41-.25 23.54-4.12 24.15-4.21h.02V109.77s-22.72-3.74-24.16-3.98v-6.96h67.3c.12 0 .23 0 .36.02 32.8.06 49.44 9.86 49.44 33.68 0 29.8-33.1 38.36-33.1 38.36v.05s42.69-1.02 42.69 37.01c0 28.98-18.57 43.04-50.38 43.04h-76.31Zm91.16-111.95c0-34.07-32.7-32.22-32.7-32.22-1.73 0-5.46 0-7.42.22l-.82.09v134.97h.06c1.04 0 6.89.02 14.22.02h.75c24.53 0 34.81-15.67 35.42-31.49.02-.54.04-1.05.04-1.57 0-29.23-37.65-32.76-40.89-33.01v-4.57s30.25-3.11 31.31-30.96c.02-.49.02-1 .02-1.49ZM69.73 187.43c1.66-.25 23.01-4.21 23.01-4.21V57.09h-34.8l-.16.08c-12.4 4.89-16.63 21.97-17.47 26.03 0 .03-.02.12-.02.12l-5.4-.3 4.61-38.59 133.09-.06v.02l5.1 43.27-.53.05-1.01.06-3.89.19c-.81-3.88-5.46-25.83-17.94-30.81l-.18-.06v-.02h-35.09v126.16s21.74 3.96 23.18 4.21v6.95h-72.5Zm192.71 51.73v5.53h-1.38v-5.53h-2.02v-1.18h5.44v1.18Zm9.87 5.53v-5.35h-.04l-1.96 5.35h-1.32l-1.88-5.35h-.05v5.35h-1.37v-6.71h2.38l1.58 4.38 1.64-4.38h2.36v6.71Z"/><path fill="#8fbce6" d="M92.74 57.1h-34.8l-.16.08c-12.39 4.88-16.62 21.96-17.46 26.03 0 .02-.02.09-.02.12l-5.4-.3-.56 4.53 9.92.52.4-1.96c.67-3.27 4.59-19.71 15.88-24.34h32.19V57.1Zm88.6 50.01v134.98h.06c1.04 0 6.89.02 14.21.02-3.07 0-7.64 0-9.63-.02V111.62c2.05-.06 5.9-.15 5.9-.15.27-.02 13.45-.61 22.26 7.73 5.22 4.96 7.93 12.12 8.1 21.31.02-.49.02-1 .02-1.49 0-34.07-32.7-32.22-32.7-32.22-1.73 0-5.45 0-7.42.22l-.82.09Zm9.6 64.58v8.83l2.14.17c3.93.33 38.05 3.81 38.72 29.93.02-.54.04-1.05.04-1.57 0-29.23-37.65-32.75-40.89-33.01v-4.35Zm-44.32 16.14s-19.95-3.63-23.17-4.21V61.73h32.24c10.54 4.38 15.19 23.31 16.36 29.03l.4 1.96 9.92-.52-5.62-47.83h-4.15l5.1 43.29-.53.05-1.02.06-3.89.19c-.81-3.9-5.46-25.83-17.95-30.81l-.16-.06h-35.11v126.15s21.75 3.96 23.19 4.21v6.95h-72.5l-.02 4.66h76.91v-11.22Zm8.68-78.05s-22.72-3.73-24.16-3.98v-6.96h-.02v11.28s20.87 3.44 24.16 3.96zm96.81 73.64c-7.52-7.35-17.5-10.36-24.83-11.6 10.32-5.11 25.59-16.17 25.59-36.95 0-24.58-16.57-36.03-52.13-36.03h-1.94c32.8.08 49.44 9.88 49.44 33.7 0 29.8-33.1 38.36-33.1 38.36v.05s42.69-1.02 42.69 37.01c0 28.97-18.57 43.02-50.38 43.02h-76.31v-6.59l-.03.02.02 1.94v9.29h78.64c33.98 0 52.71-16.11 52.71-45.35 0-11.12-3.48-20.14-10.36-26.87"/></svg>