<svg xmlns="http://www.w3.org/2000/svg" viewBox="0 0 300 300"><title>Texas Rangers cap on light logo</title><path fill="#003278" d="M226.16 251.29h3.77v10.74h-2.2v-8.55h-.05l-3.11 8.55h-2.11l-3.01-8.55h-.05v8.55h-2.2v-10.74h3.8l2.5 7.02h.06Zm-19.6 0h8.68v1.91H212v8.83h-2.19v-8.83h-3.25Zm-14.85-.44v-29.71l10.8 12.57v30.49h-91.05l-10.07-13.24v-.11Zm-24.27-100.53c0-9.31 13.96-13.37 14.1-13.42l7.08-2c4.07 2.92 8.1 4.49 8.1 4.49s-16.39 4.52-16.39 16.35v58.34h-4.09c-8.12 0-8.8-2.91-8.8-5.89Zm0-81.49c15.35.14 26.91 3.79 34.26 10.61-5.5-4.01-12.08-6.38-19.06-6.38l-2.31-.15v49.21c0 4.18 2.42 7.7 5.4 10.44l-3.9-1.52c-4-1.55-14.39-7.18-14.39-14.35Zm82.02-15.68v70.52H228.3l-10.25-12.82h19.16V40.24ZM78.39 104.28c.03-25.65 11.67-35.55 41.38-35.62v3.49c-27.53 2.98-30.02 19.67-30.02 45.97l-.03 4.74H62.05l-9.51-12.01h25.8l.04-6.57Z"/><path fill="#c0111f" d="M53.18 104.66h19.16c0-.18.02-.34.02-.48 0-.47-.03-.65-.14-.22 0-28.73 14.76-41.54 47.83-41.54h5.89v54.27c0 8.88-5.99 14.11-10.81 17.08 4.84 2.74 10.81 7.66 10.81 16.56v57.35c0 7.77-5.52 12.59-14.43 12.59h-9.88v24.4h83.88v-24.4h-9.28c-12.39 0-14.99-6.57-14.99-12.08v-57.86c0-8.88 6.97-13.91 12.43-16.67-5.39-3.19-12.43-8.72-12.43-16.98V62.52l2.3.02h3.1c32.04 0 50.44 14.55 50.44 39.95 0 0-.02 1.13-.03 2.16h13.97V39.8H53.18z"/></svg>