<svg xmlns="http://www.w3.org/2000/svg" viewBox="0 0 300 300"><title>Toronto Blue Jays cap on light logo</title><path fill="#fff" d="m287.89 138.85-4.54 3.92-28.11 24.25 2.85 3.44 5.24 6.31-8.17-.67-22.75-1.86-1.15 2.21-3.06 5.9-3.06-5.89-.16-.32-6.05 5.51c-.34.31-28.94 24.01-58.14 75.25l-8.74 16.09c-7.78-23.17-24.95-70.7-59.89-102.33-7.03-6.36-11.76-8-22.79-10.05-24.56-4.58-45.13-12.35-52.02-17.35l-.2-.15c-2.87-2.27-3.21-4.72-3.02-6.35-.5-1.87-.08-3.91 1.19-5.65l.38-.46c5.68-6.27 23.11-11.83 53.27-16.96 2.97-4.32 6-7.23 11.33-9.49l2.79-1.18c4.35-6.12 11.66-13.92 25.62-18.5 5.78-1.9 15.14-3.13 27-4.69 29.31-3.86 73.61-9.69 91.78-30.79l10.53-12.23s2.65 8.13-.52 18.58c5.12-3.09 18.68-2.85 18.68-2.85s-9.58 13.14-11.73 18.27c.06-.01-1.63.47.2-.05 6.49-1.87 10.71-.86 10.71-.86-6.61 9.29-10.12 21.5-11.51 28.45-.22 1.11-.45 2.22-.69 3.35l2.38-.96 5.26-2.13-.54 5.65c-.01.17-1.37 14.17-1.91 19.69 3.04-2.94 8.78-8.53 8.85-8.6l3.71-3.62 1.9 4.82 1.72 4.37 11.69-1.99 4.39-.75-.36 4.44-1.1 13.2 3.09 1.07 5.67 1.95ZM110.49 90c-12.75 4.18-19.28 11.14-23.82 17.99-.44 7.07 4.71 13.83 10.76 13.83 0 0-1.59-4.02.45-8.11.81-1.6 2.33-3.09 4.37-4.29 15.04-10.09 46.92.25 46.92.25-7.57-.69-13.79-.55-19.03.14 8.9 2.77 18.41 6.52 24.85 8.08 7.93 1.92 13.2 2.91 21.08 3.38l-.25-3.1 4.39.75 11.68 1.99 1.73-4.37 1.9-4.82 3.71 3.62c.09.07 5.82 5.66 8.85 8.6-.54-5.52-1.9-19.53-1.91-19.69l-.54-5.65 5.27 2.13 5.75 2.32 8.63-14.11 2.94-4.81 2.94 4.81 6.97 11.38c2.43-9.88 4.17-20.36 9.26-25.21-5.1.18-8.69 1.62-14.26 5.52 3.16-8.53 7.82-14.87 14.13-22.11-6.12.93-11.97 2.69-17.72 5.97 2.19-5.22 2.34-11.68 2.34-11.68-26.9 31.23-101.94 30.84-121.37 37.21Zm-90.48 44.54c-.48.66-.27.96.2 1.11 12.13-.52 29.15-1.12 58.88-.12 2.52.04 4.99.09 7.4.14 1.5-1.99 4.23-3.75 9.42-3.75h1.53c9.66.14 11.49 10.05 21.71 10.05s12.03-9.84 21.61-10.04c.26-.01.55-.01.8-.01h35.41l-.48-5.88h-35.45c-9.83 0-11.72-10.06-21.9-10.06s-12 9.93-21.47 10.01c-10.24-.61-14.3-9.19-15.1-16.46-4.49 1.9-6.78 4.13-10.15 9.45-36.61 6.06-49.13 11.91-52.42 15.55Zm133.752 122.627c28.627-55.584 61.868-80.547 64.498-82.467l-17.02 1.39-8.17.67 5.25-6.31 2.84-3.44-11-9.49c-5.98 9.13-11.81 19.05-14.59 26.7l12.11-.05c-6.22 7.71-18.21 20.45-26.27 34.56-8.06-19.8-26.94-45.27-61.05-59.27-9.88-4.05-19.21-9.43-18-17.25-17.08-2.44-35.77-4.41-56.95-5.11-1.61-.03-3.11-.06-4.45-.07-1.23-.01-1.55.48-.21 1.54 5.81 4.21 25.52 11.84 49.69 16.34 11.63 2.17 16.94 5.35 25.29 11.18 18.167 12.708 42.931 46.758 58.032 91.077M250.4 166.59l30.68-26.46-5.62-1.93 1.31-15.88-14.44 2.47-2.75-6.98s-9.31 9.06-10.55 10.25c-.81.76-1.7 1.2-2.46 1.2-1.21 0-2.1-1.1-1.86-3.74.03-.23.06-.61.11-1.11.46-4.79 1.98-20.44 1.98-20.49l-4.58 1.85-3.87 1.56-10.15-16.6-10.15 16.6-8.46-3.41c0 .05 1.52 15.69 1.99 20.49.05.5.09.87.11 1.11.24 2.64-.65 3.74-1.86 3.74-.77 0-1.66-.44-2.46-1.2-1.24-1.19-10.55-10.25-10.55-10.25l-2.75 6.98-14.44-2.47 1.3 15.88-5.62 1.93 30.68 26.46-5.02 6.04 1.77-.14 9.86-.8h.02l13.39-1.09 1.34 2.59.28.54.58 1.12 1.14-2.19 1.07-2.05 25.03 2.04-5.01-6.04ZM115.06 127.2h-3.44c-.08-2.59 1.46-5.24 3.59-6.66-.72 2.89-.32 5.38-.15 6.66"/><path fill="#134a8e" d="M234.72 179.49h4.45v.99h-1.67v4.54h-1.12v-4.54h-1.66Zm10.05 0h1.94v5.53h-1.13v-4.38h-.03l-1.58 4.38h-1.09l-1.55-4.38h-.03v4.38h-1.12v-5.53h1.95l1.28 3.61h.03ZM97.48 121.86c-6.05 0-11.2-6.76-10.76-13.83 4.54-6.86 11.07-13.81 23.82-17.99 19.43-6.38 94.47-5.98 121.37-37.21 0 0-.15 6.46-2.34 11.68 5.75-3.28 11.6-5.04 17.72-5.97-6.31 7.24-10.97 13.57-14.13 22.11 5.57-3.89 9.16-5.33 14.26-5.52-5.09 4.85-6.83 15.33-9.26 25.21l-6.97-11.38-2.94-4.81-2.94 4.81-8.63 14.11-5.75-2.32-5.27-2.13.54 5.65c.02.17 1.37 14.18 1.91 19.69-3.03-2.94-8.77-8.53-8.85-8.6l-3.71-3.62-1.9 4.82-1.73 4.37-11.68-1.99-4.39-.75.25 3.1c-7.89-.46-13.15-1.45-21.08-3.38-6.45-1.57-15.95-5.31-24.85-8.08 5.25-.69 11.46-.83 19.03-.14 0 0-31.88-10.34-46.92-.25-2.04 1.2-3.56 2.68-4.37 4.29-2.04 4.1-.45 8.11-.45 8.11Z"/><path fill="#1d2d5c" d="m193.11 176.76 8.17-.67 17.02-1.39c-2.63 1.92-35.88 26.89-64.51 82.49-15.11-44.33-39.87-78.39-58.04-91.1-8.35-5.83-13.66-9.01-25.29-11.18-24.17-4.5-43.88-12.13-49.69-16.34-1.34-1.06-1.02-1.55.21-1.54 1.34.02 2.84.04 4.45.07 21.18.7 39.87 2.67 56.95 5.11-1.2 7.82 8.12 13.2 18 17.25 34.1 14 52.98 39.47 61.05 59.27 8.06-14.11 20.05-26.85 26.27-34.56l-12.11.05c2.78-7.65 8.61-17.57 14.59-26.7l11 9.49-2.84 3.44-5.25 6.31ZM20.19 135.63c-.47-.14-.69-.45-.2-1.11 3.29-3.64 15.82-9.49 52.42-15.55 3.37-5.32 5.67-7.55 10.15-9.45.81 7.27 4.86 15.85 15.1 16.46 9.47-.07 11.14-10.01 21.47-10.01s12.07 10.06 21.9 10.06h35.45l.48 5.88h-35.41c-.25.01-.54.01-.8.01-9.58.2-11.35 10.04-21.61 10.04s-12.05-9.92-21.71-10.05H95.9c-5.19 0-7.92 1.76-9.42 3.75-2.41-.06-4.88-.1-7.4-.14-29.73-.99-46.75-.39-58.88.12Zm91.43-8.42h3.44c-.16-1.29-.57-3.77.15-6.67-2.13 1.42-3.67 4.08-3.59 6.67"/><path fill="#d50032" d="m276.8 122.33-14.44 2.47-2.75-6.98s-9.31 9.06-10.55 10.25c-.8.76-1.7 1.2-2.46 1.2-1.21 0-2.1-1.1-1.86-3.74.03-.24.06-.61.11-1.11.47-4.8 1.98-20.44 1.98-20.49s-4.58 1.85-4.58 1.85l-3.87 1.56-10.15-16.59-10.15 16.59-8.46-3.41c0 .05 1.52 15.7 1.99 20.49.04.5.08.88.11 1.11.24 2.64-.65 3.74-1.86 3.74-.77 0-1.65-.43-2.46-1.2-1.24-1.19-10.55-10.25-10.55-10.25l-2.75 6.98-14.44-2.47 1.3 15.88-5.62 1.93 30.68 26.46-5.02 6.04 1.77-.14 9.86-.81 13.41-1.1 1.34 2.59.28.54.59 1.12 1.14-2.19 1.07-2.06 25.03 2.04-5.01-6.04 30.68-26.46-5.62-1.93 1.31-15.88Z"/></svg>