<svg xmlns="http://www.w3.org/2000/svg" viewBox="0 0 300 300"><title>Minnesota Twins cap on light logo</title><path fill="#041e42" d="m137.52 116.44-.09-33.18c0-8.93-.08-15.9-.18-21.94-28.39 1.54-55.13 10.57-78.96 26.41l6.04-37.8c24.8-8.79 56.43-13.12 88.19-13.12s63.52 4.33 88.32 13.12l6.04 37.8c-23.82-15.85-50.57-24.88-78.96-26.41-.09 6.04-.17 13-.17 21.94.01 2.65.02 5.32.02 8 .02 8.36.03 16.88.05 25.5.05 28.62.06 58.21.06 85.77-4.71.62-9.66.95-14.83.95-5.48 0-10.69-.36-15.6-1.04.15-27.51.13-57.04.07-85.6zm15.8 112.23c5.03 0 9.91-.23 14.65-.66h.01c.54 12.61 3.64 24.7 8.04 37.54h-46.85c4.42-12.9 7.42-25.04 8.02-37.7h.01c5.13.55 10.49.82 16.11.82Zm26.36 8.62h7.26v1.6h-2.72v7.39h-1.83v-7.39h-2.71Zm16.39 0h3.16v8.99h-1.83v-7.15h-.04l-2.21 6.07-.4 1.08h-1.76l-2.53-7.15h-.04v7.15h-1.83v-8.99h3.17l2.09 5.87h.06l1.24-3.35Z"/><path fill="#d50032" d="M167.88 202.51c24.42-3.26 42.25-14.53 50.39-29.5l33.47.14c-8.42 28.21-39.44 50.76-83.77 54.85h-.01c-4.73.43-9.62.66-14.65.66-5.62 0-10.98-.27-16.11-.82h-.01c-29.56-3.14-51.46-15.32-72.59-36.45-8.8-8.79-18.91-20.6-30.98-31.76 12.08-11.16 22.18-22.97 30.98-31.76 21.19-21.2 43.16-33.39 72.85-36.48.03 8.21.05 16.58.07 25.04v.4c-15.73 2.13-28.45 7.49-37.36 14.59-9.45 7.47-15.35 17.32-15.35 28.21s5.9 20.73 15.35 28.22c8.9 7.09 21.59 12.44 37.29 14.58 4.91.68 10.12 1.04 15.6 1.04 5.18 0 10.12-.33 14.83-.95Zm-.06-85.75c-.01-8.62-.03-17.14-.05-25.5 44.43 4.04 75.54 26.6 83.97 54.87l-33.47.13c-8.15-14.98-26-26.26-50.45-29.5"/></svg>