<svg xmlns="http://www.w3.org/2000/svg" viewBox="0 0 300 300"><title>Philadelphia Phillies cap on light logo</title><path fill="#fff" d="M202.94 41.66c-12.85-5.91-28.19-9.03-44.38-9.03-29.4 0-57.09 9.89-74.09 26.45-17.56 17.24-26.18 37.94-23.05 55.4 1.82 10.17 7.43 17.89 15.84 21.61 5.6 2.48 9.69 3.25 14.13 3.25 4.12 0 8.06-.86 11.59-2.76 14.65-7.9 17.94-28.66 18.07-29.55 0 0 .6-3.37.63-5.41-1.41.57-9.22 1.5-9.57-1.36-.35-2.9 4.26-11.08 11.57-16.08v133.56c-11.48 12.51-17.78 25.31-17.78 36.14 0 2.71.39 5.28 1.17 7.63 2.43 7.36 8.48 12.25 17.07 13.76 1.86.32 3.79.48 5.74.48 9.3 0 18.92-3.61 26.39-9.9 8.79-7.4 13.63-17.42 13.63-28.21v-69.53c33.65-12.39 66.08-28.42 68.64-70.3.08-1.26.12-2.59.12-4.08 0-23-12.69-41.5-35.73-52.09m-31.08 85.05-.99.18V74.49s3.06-.17 4.14-.17c14.59 0 22.51 7.09 24.21 21.66.11.97.16 2.01.16 3.05 0 13.88-10.55 24.48-27.52 27.66"/><path fill="#c20c31" d="M129.88 271.03c-1.68 0-3.34-.14-4.92-.41-6.78-1.2-11.54-4.96-13.4-10.6-.61-1.87-.9-3.94-.93-6.14-.24-15.96 17.79-34.28 17.79-34.28V76.22s-18.32 7.36-20.92 22.67c-1 6.66 5.52 7.79 8.97 7.5 0 0-2.93 18.83-15.72 26.02-2.8 1.58-5.95 2.3-9.28 2.3-4.94-.23-7.78-1.05-12.27-2.94-6.93-3.11-11.59-9.55-13.13-18.13-2.85-15.91 5.26-35.05 21.7-51.18 15.89-15.49 43.02-25.11 70.79-25.11 15.51 0 30.18 2.97 42.41 8.59 21.28 9.78 32.99 26.75 32.99 47.8 0 1.38-.04 2.62-.11 3.79-2.45 39.99-33.48 54.5-67.81 66.97l-.85.31v72.84c0 9.38-4.25 18.12-11.96 24.6-6.64 5.59-15.15 8.79-23.35 8.79Zm36.28-200.95v62.28c2.25-.27 5.06-.72 6.56-1.03 19.35-3.62 31.37-16 31.37-32.3 0-1.21-.06-2.41-.19-3.59-2-17.15-11.72-25.84-28.9-25.84-1.19 0-8.86.48-8.86.48Zm6 189h6.05v1.33h-2.26v6.15h-1.53v-6.15h-2.26Zm13.66-.01h2.63v7.5h-1.52v-5.97h-.04l-2.17 5.97h-1.48l-2.09-5.97h-.04v5.97h-1.53v-7.5h2.65l1.74 4.9h.04Z"/></svg>