<svg xmlns="http://www.w3.org/2000/svg" viewBox="0 0 300 300"><title>Atlanta Braves cap on light logo</title><path fill="#0c2340" d="M248.29 191.66c6.3 6.09 9.11 18.08 6.97 29.81-2.15 11.89-8.89 21.09-18.48 25.23-10.26 4.44-20.89 4.06-30.73-1.09-15.98-8.37-28.63-28.8-35.37-56.44-5.96.91-13.46 2.05-13.46 2.05-7.67 1.01-14.49 1.96-22.48 3.97-13.33 27.26-29.75 55.27-55.26 55.62-14.94.21-27.47-5.36-35.28-15.65-6.61-8.71-9.01-19.92-6.26-29.25 1.23-4.23 4.14-14.12 12.12-12.97 2.13.3 6.93 1.95 7.23 10.09.08.29 4.9 13.88 20.57 13.1 1.64-.07 3.33-.74 5.08-1.81-1.41-.12-2.84-.53-4.21-1.63-2.35-1.87-2.95-4.35-2.95-6.52 0-1.6.33-3.04.54-3.97.05-.21 5.36-20.68 35.24-32.05.32-.63.68-1.36.68-1.36 19.37-38.83 45.89-92.01 98.49-119.38l1.08-.63c3.68-2.21 9.86-5.89 14.58-1.13 1.67 1.68 2.29 3.58 2.29 5.5 0 3.65-2.25 7.35-3.69 9.71-18.02 29.63-27.87 59.46-29.01 87.02 10.61-5.62 16.06-12.66 17.15-22.13.27-2.43 1.01-8.86 6.69-10.68 5.57-1.79 9.76 2.88 11.14 4.41 2.49 2.76 4.91 9.1 4.91 16.97 0 3.32-.44 6.91-1.47 10.62-2.92 10.49-11.67 24.32-35.36 33.22 6.21 25.07 19.1 36.13 22.61 35.99 4.99-.82 9.55-6.32 9.55-15.46 0-.97-.06-1.98-.16-3.02-.08-.73-.19-1.78-.19-2.99 0-3.18.75-7.41 4.83-9.39 5.45-2.65 9.85 1.61 12.57 4.24Zm-98.11-29.28c5.85-.82 11.19-1.72 16.05-2.71-.42-5.53-.88-11.05-.88-16.74 0-3.1.19-6.26.32-9.39-5.53 8.65-10.66 18.73-15.48 28.83Zm89.75 10.91h-1.81v5.08h-1.22v-5.08h-1.81v-1.09h4.84Zm8.19 5.08h-1.22v-4.92h-.04l-1.73 4.92h-1.18l-1.67-4.92h-.03v4.92h-1.22v-6.18h2.11l1.39 4.03h.04l1.45-4.03h2.1Z"/><path fill="#ba0c2f" d="M243.34 196.73c-2.98-2.89-6.14-6.03-5.29 2.35 1.47 14.4-5.81 24.62-15.28 26.16-9.13 1.49-26.2-16.09-32.05-47.46 46.99-14.2 38.84-47.32 35-51.58-3.28-3.64-4.91-3.56-5.59 2.35-1.72 15.01-12.13 25.2-31.33 32.19-1.15-27.25 6.04-61.92 30.15-101.56 7.21-11.85-2.38-4.89-4.99-3.53-52.18 27.15-77.65 80.69-97.28 119.97-26.04 8.83-32.86 25.35-33.51 28.16-.88 3.82-.53 4.56 4.11 2.35 6.55-3.12 12.32-5.68 17.56-7.91-8.47 14.71-16.67 24.46-26.66 24.95-19.97.98-27.92-16.4-27.92-19.4 0-5.58-2.65-5.88-5.58 4.12-3.99 13.53 6.37 36.25 34.68 35.85 21.45-.29 36.44-25.52 50.47-54.61 16.35-4.54 26.91-4.34 46.17-7.9 8.84 44.01 32.7 69.9 57.94 59 17.5-7.57 18.22-34.98 9.4-43.5m-69.75-31.45c-10.02 2.4-21.4 4.17-34.58 5.59-.22.02-.43.04-.65.07 11.03-23.68 22.19-47.05 36.22-59.43-2.62 19.27-2.76 37.45-.99 53.78Z"/></svg>