<svg xmlns="http://www.w3.org/2000/svg" viewBox="0 0 300 300"><title>Chicago White Sox cap on light logo</title><path d="M230.79 268.08h-2.61v7.06h-1.75v-7.06h-2.61v-1.56h6.96v1.56Zm11.77 7.06h-1.74v-6.85h-.06l-2.49 6.85h-1.7l-2.42-6.85h-.03v6.85h-1.76v-8.62h3.06l1.99 5.64h.03l2.09-5.64h3.02v8.62Zm-32.13-25.35-13.62-21.63 24.55-30.85 8.15 6.58-.02-17.56-10.99-9.9-30.4 37.83-4.29-6.8c3.71-2.78 8.49-6.35 9.01-6.62.89-.44 3.08-1.75 4.18-1.75.98 0-1.54-4.41-8.79-4.39l-.03-38.87 4.16-4.6s-5.05.79-7.46.06c-.51-.16-1.37-.57-2.42-1.12 1.37-2.16 2.59-4.64 3.5-7.5 4.93-15.62 1.44-30.65-10.13-39.26-8.34-6.2-42.4-23.49-42.4-23.49s-20.64-10.09-22.87-12.3c-1.58-1.58-4.83-4.06-4.84-11.84 0-4.66 5.18-9.79 7.41-10.85 3.57-1.69 4.75-2.48 11.98-2.6 4.08-.05 7.88.92 8.39.96 4.51.47 15.16 3.99 20.65 11.42 2.12 2.1 2.53 8.27 2.53 8.27l8.58 5.48 18.64-24.4-10.11-6.79c-2.85 3.06-8.34 3.27-10.56 2.19-2.18-1.09-21.03-7.94-23.7-8.79-5.06-1.63-16.05-2.81-21.96-1.93-5.94.89-15.66 2.69-23.27 10.77-8.9 9.47-9 17.04-8.99 21.09.01 6.38 1.67 14.81 8.8 21.92 10.29 10.29 25.93 16.69 29.47 18.63 6.23 3.46 25.92 13.75 28.78 15.38 12.08 7.03 16.68 14.5 15.39 23.94-.06.46-.22.9-.31 1.34-5.3-3.11-12.74-7.78-15.73-10.77 0 0-1.82 1.93-2.98 3.06l-8.78 6.62c1.07-4.26 1.17-11.58 1-12.32-.23-.85-.88-7.89-7.04-12.27-4.18-2.98-13.52-8.56-21.55-12.51-3.44-1.69-14.63-8.43-19.99-12.9 0 0-9.23-8.59-10.66-13.86-2.75-6.03-2.88-20.32-1.45-21.74 0 0-3.51 3.98-5.91 11.87-1.18 3.85-1.97 8.89-1.97 12.3 0 5.7 1 15.7 7.26 24.14 2.77 3.73 7.11 7.98 11.71 10.98 5.58 3.69 11.23 5.86 11.61 6.14 1.53 1.09 16.03 7.2 17.35 7.85 1.32.66 10.63 5.46 10.99 5.59 2.86 1.04 6.47 4.91 7.56 7.55l-15 11.28s.65 1.2.66 3.06v1.44c-2.03-.68-4.1-1.26-6.15-1.61-9.88-1.66-15.9-1.56-23.72.36-8.68 2.16-17.79 5.68-26.36 14.23-9.65 9.7-9.53 16.2-9.53 16.2l9.65-5.71c8.07-4.56 18.72-7.3 26.23-7.3 18.14-.01 27.39 5.21 29.88 8.1l.02 17.35c0 3.44-1.04 3.9-1.8 4.53-.3.27-.57.3-1.61 1.01 0 0 1.33.49 1.66.82.87.65 35.06 21.25 35.06 21.25l13.25-9.71 6.55 10.43-18.14 22.58-12.53-11.4.03 21.29 14.28 13.17 25.18-31.67 20.72 32.94 16.67-13.41v-21.1l-13.41 10.12ZM152 150.93c2.02 1.74 4.47 3.35 6.92 4.77-.05.05-.19.16-.19.16s-8.82 7.53-14.45 8.43v-7.67c.11-.1 7.72-5.69 7.72-5.69m5.75 55.55c0-.13-13.49-8.34-13.49-8.34.03 0 .03-9.06.03-18.74v-1.84c5.76-1.12 19.4-7.64 26.61-14.76.06 1.07.07 6.36.07 12.44 0 3.95-.01 8.13-.01 11.75l-8.25-13.1-12.77 9.09v16.22l7.08-4.67 5.23 8.31c-2.47 2-4.51 3.66-4.51 3.66"/></svg>