<svg xmlns="http://www.w3.org/2000/svg" viewBox="0 0 300 300"><title>Miami Marlins cap on light logo</title><path fill="#00a3e0" d="M105.67 110.67c-16.73-.73-39.23.11-60.7 7.09h-.03c7.92-4.01 15.94-6.99 23.71-9.16 4.5-9.41 10.15-16.7 19.19-23.19 3.25-2.47 7.53-4.9 10.08-6.42.42-.28.82-.54 1.22-.79 5.08-3.43 8.45-6.57 10.67-10.31 3.25-5.71 3.77-12.66 3.67-16.72.03-5.45.4-10.98 1.53-14.77 0 0 1.04-3.83 1.77-5.42 1.78 1.45 2.52 2.1 4.6 4.19 12.52 13.6 20.44 27.71 24.83 36.8l.68.15c2.99.59 5.9 1.52 8.67 2.8a69.6 69.6 0 0 1 10.19-.45l57.5-10.3-3.49 3.36-10.6 2.71-35.48 6.4-7.67 1.38c-6.1-.22-11.02.55-11.02.55a34.7 34.7 0 0 0-8.65-2.94c-.87-.21-1.75-.39-2.63-.55-4.14-8.8-12.27-23.8-25.12-37.77-3.51 10.36 1.44 17.31-5.4 31.58-.77 1.6-1.47 3.04-3.01 4.74-5.91 6.5-9.18 7.26-15.18 11.3-9.88 6.15-17.03 13.89-21.72 22.43a148 148 0 0 1 15.53-2.88c13.19-1.71 24.31-1.34 30.93-.4-4.72 1.73-9.51 3.92-14.07 6.56Zm16.51-60.84c6.68 9.06 11.57 17.87 14.27 23.15-8.4.06-15.74 2.09-21.56 4.57 3.82-5.17 8.18-14.26 7.31-26.68-.02-.17-.02-.61-.02-1.04M82.39 177.05c-.21.69-.43 1.38-.65 2.06l-.02-.02c-9.41-9.5-18.1-24.44-18.93-41.57 0 0-.03-.58-.03-.62-.22-7.34.84-14.62 3.1-21.44q1.86-.105 3.84-.18c-7.58 20.92-2.18 44.9 12.69 61.76Zm47.81 76.54c2.41 2.34 4.69 3.28 4.69 3.28-4.92-1.1-17.01-1.6-20.01-28.52-1.24-11.11-2.09-19.03-2.09-19.03-.14-1.61-.39-3.03-.84-4.33l-1.05 3.42c-.07.23-.16.53-.26.88-1.21 4.17-4.78 16.43-12.47 25.79-.41.49-.82.97-1.24 1.44-3.53 3.92-7.73 6.83-12.07 9-10.8 5.06-22.07 5.69-26.98 6.04-2.01.14-3.98.2-5.94.22 7.38-5.77 13.23-11.41 17.12-19.4 1.13-2.17 2.19-4.61 3.13-7.32 1.4-4.07 15.33-49.1 25.25-81.24 2.02-2.29 4.29-4.35 6.69-6.2-9.93 32.16-26.08 84.41-27.63 88.92-3.21 9.3-7.75 15.75-11.33 19.76 19.15-2.59 25.97-10.17 28.37-12.83 7.85-8.72 11.51-21.32 12.71-25.46.11-.37 23.03-75.36 23.03-75.36l8.25 39.11c-1.63 1.12-3.4 2.49-5.32 4.15-3.56 3.09-4.58 3.76-7.33 6.28-2.717 2.488-4.975 3.947-7.333 4.508l-3.377 11.052c-.28.94-.55 1.81-.79 2.6 2.06 3.81 2.42 7.06 2.61 8.6.48 3.84.36 8.13 2.3 21.12 3.25 21.8 11.79 23.52 11.91 23.54Zm-11.458-70.801c1.199-.45 2.449-1.28 4.208-2.689 1.06-.85 3.22-2.83 6.04-5.13 1.2-.98 2.52-2.01 3.92-3.05l-4.43-20.99-2.68 8.76Zm-.19.622-.545 1.783zM263.45 81.24c5.21.07 10.65.84 10.65.84-1.51 1.1-3.12 2.31-4.6 3.48-11.04 8.4-18.97 20.71-24.25 37.63l-29.67 95.54c-.86 2.95-1.46 5.24-1.74 7.35-.55 4.12-.34 7.29.65 9.95.21.64.32.99 1.14 3.08h-39.72l26.36-85.2-7.67 10.31-49.33 66.35-7.92-37.54c.88-1.29 2.19-3.16 3.6-5.02l6.69 31.71 66.85-89.92-32.4 104.73h27.27c-.49-2.63-.5-5.58-.04-9.06.32-2.39.96-4.86 1.89-8.06l29.68-95.58c4.82-15.44 11.79-27.28 21.22-36.02-9.04.15-22.05 1.95-34.99 9.19-11.21 6.42-20.28 14.76-34.63 31.85-8.16 10.63-16.93 22.49-23.33 31.15-3.06 4.15-5.49 7.43-6.89 9.28l-3.02 3.99-12.1-57.71c1.6-.17 3.13-.26 4.6-.28l8.67 41.34 1.23 5.88c1.11-1.5 2.4-3.26 3.84-5.2 6.42-8.69 15.21-20.59 23.41-31.26l.06-.08c14.75-17.58 24.15-26.19 35.91-32.93 3.95-2.22 7.9-3.94 11.76-5.29 10.26-3.6 19.83-4.51 26.82-4.51ZM216.96 231h3.07v.75h-1.15v3.46h-.78v-3.46h-1.14Zm6.92 0h1.34v4.21h-.78v-3.36h-.02l-1.1 3.36h-.74l-1.06-3.36h-.03v3.36h-.77V231h1.35l.88 2.75h.01Z"/><path d="M173.33 95.71c11.82-.74 15.79 2.48 15.79 2.48l-27.72 2.97-8.8 8.55c-22.52-.18-71.2 18.1-66.26 54.49-1.32 4.26-2.66 8.6-3.97 12.83-14.86-16.86-20.26-40.83-12.69-61.76 2.54-.1 5.22-.17 8.02-.17-2.99 6.92-4.33 14.38-3.98 22.19.17 3.79.74 7.54 1.67 11.18-1-13.15 1.29-24.23 6.02-33.34 5.1.07 10.53.33 16.17.87 2.56-1.96 5.27-3.75 8.07-5.37 4.56-2.64 9.35-4.83 14.07-6.56-6.62-.94-17.74-1.32-30.93.4 10.92-12.17 27.39-19.19 45.68-21.52-.35 0-.71.01-1.06.02-15.56.49-29.98 4.69-40.31 12.49q-2.49 1.89-4.71 4.02a52.5 52.5 0 0 0-5 5.8c-3.29.55-6.67 1.23-10.12 2.07 4.69-8.54 11.84-16.28 21.72-22.43 5.99-4.03 9.27-4.8 15.18-11.3 1.54-1.69 2.24-3.14 3.01-4.74 6.84-14.27 1.89-21.22 5.4-31.58 12.86 13.97 20.98 28.97 25.12 37.77.88.16 1.76.34 2.63.55 2.53.5 5.52 1.39 8.65 2.94 0 0 4.92-.77 11.02-.55l7.67-1.38 35.59-6.41s-35.74 13.09-43.6 16.06-7.67 10.37-7.67 10.37l15.36-.93ZM122.2 50.87c.86 12.42-3.49 21.51-7.31 26.68 5.82-2.48 13.16-4.52 21.56-4.57-2.7-5.28-7.58-14.09-14.27-23.15.01.44.01.87.02 1.04m31.88 46.02c.76-6.5 3.54-8.1 3.54-8.1-8.85 2.94-10.24 8.51-10.24 8.51Zm-19.34 105.22c-.02.06-.05.12-.07.18l-1.65-7.92-.23-1.11c.05-.11.12-.23.19-.36.02-.03.04-.07.06-.1.08-.13.17-.27.27-.43 1.08-1.58 4.16-6.07 6.89-9.21.32-.37.64-.73.95-1.09.05-.06.1-.11.15-.17.02-.02.05-.05.07-.08 5.21-6 9.7-11.12 13.24-12.31l-.16-.03c-.7-.09-3.23-.04-7.97 3.66-2.29 1.97-5.15 4.74-8.61 8.65-3.82 4.32-5.6 7.29-6.92 9-.99 1.27-1.28 1.97-1.48 3.16-.03.22-.12 3.66-.77 5.41-.5 1.34-2.51 4.25-2.62 4.43-.95 1.57-.83 2.34-.8 3.21.03.88-.14 12.49.19 25.4.33 12.92 4.75 21.21 4.75 21.21-.12-.02-8.66-1.74-11.91-23.54-1.94-13-1.83-17.28-2.3-21.12-.19-1.54-.54-4.79-2.61-8.6.24-.79.5-1.66.79-2.6.94-3.09 2.12-6.93 3.37-11.04 2.36-.56 4.63-2.02 7.34-4.51 2.75-2.53 3.77-3.19 7.33-6.28 1.91-1.67 3.68-3.03 5.32-4.15l-8.25-39.11s-22.92 74.99-23.03 75.36c-1.2 4.14-4.86 16.74-12.71 25.46-2.39 2.66-9.22 10.24-28.37 12.83 3.58-4.01 8.12-10.45 11.33-19.76 1.55-4.51 17.7-56.76 27.63-88.92-2.4 1.85-4.67 3.91-6.69 6.2a43 43 0 0 0-2.88 3.67c-2.32 3.35-4.87 6.94-6.38 10.8l1.02-3.3c.28-.86.55-1.71.8-2.47.79-2.81 1.86-5.5 3.17-8.03 6.04-11.61 18.27-19.16 27.15-23.27 8.72-4.04 18.54-6.82 26.82-7.69l12.1 57.71 3.02-3.99c1.4-1.86 3.82-5.13 6.89-9.28 6.4-8.66 15.17-20.52 23.33-31.15 14.35-17.09 23.42-25.43 34.63-31.85 12.93-7.24 25.94-9.03 34.99-9.19-9.43 8.74-16.4 20.59-21.22 36.02l-29.68 95.58c-.93 3.2-1.57 5.66-1.89 8.06-.47 3.48-.46 6.43.04 9.07H182.1l32.4-104.73-66.85 89.92-6.69-31.71c-1.41 1.86-2.72 3.74-3.6 5.02-.3.43-.55.8-.74 1.08-.64.93-.8 1.39-.86 1.92-.02.07-.02.13-.02.18-.11 1.88-.4 4.25-1.01 5.91Z"/><path fill="#41748d" d="M132.83 193.25c-.2.43-.27.75-.32 1.07-.02.07-.02.13-.02.18-.11 1.88-.32 4.25-.93 5.91-.45 1.23-1.55 2.96-2.67 4.65-.07.1-.11.16-.16.24-.44.83-.44.96-.41 1.4v.27c.01.26.02 1.1.06 3.14.08 4.78-.12 12.9.12 22.21.23 8.92 4.1 20.54 6.41 24.57 0 0-2.28-.93-4.69-3.28 0 0-4.42-8.29-4.75-21.21s-.16-24.53-.19-25.4-.14-1.64.8-3.21c.11-.18 2.13-3.09 2.62-4.43.65-1.75.73-5.19.77-5.41.2-1.19.49-1.89 1.48-3.16 1.32-1.71 3.1-4.68 6.92-9 3.46-3.91 6.31-6.68 8.61-8.65 4.73-3.7 7.26-3.75 7.97-3.66.06.01.11.02.16.03-3.54 1.18-8.03 6.31-13.24 12.31-.02.02-.05.05-.07.08-.05.06-.1.11-.15.17-.32.36-.63.72-.95 1.09-2.73 3.14-5.81 7.64-6.89 9.22-.11.15-.19.29-.27.42-.02.03-.04.07-.06.1-.07.13-.14.25-.19.36Zm76.33-123.02 10.6-2.71-3.32 3.24c-.36.13-41.76 15.36-49.52 18.29-2.15.82-3.63 2.56-4.22 4.3l10.44-.64c1.32-.09 2.62-.15 3.84-.13 12.5.25 18.83 6.41 20.1 7.8l-33.53 3.61-9.5 9.27h-1.76c-.18 0-.37.01-.55.01-1.46.02-3 .11-4.6.28-8.29.86-18.1 3.65-26.82 7.69-8.88 4.12-21.12 11.66-27.15 23.27a41 41 0 0 0-3.17 8.03c-.25.76-.53 1.61-.8 2.47l-1.02 3.3c-.06.2-.13.41-.19.62-.03.08-.05.16-.08.24-.25.82-.5 1.63-.75 2.46-.26.86-.52 1.72-.79 2.58-4.94-36.38 43.75-54.67 66.26-54.49l8.8-8.55 27.72-2.97s-3.97-3.22-15.79-2.48l-15.36.93s-.19-7.4 7.67-10.37c7.86-2.98 43.6-16.06 43.6-16.06l-35.59 6.41ZM147.38 97.3s1.39-5.57 10.24-8.51c0 0-2.78 1.6-3.54 8.1Zm-69.65 17.8c-2.8.01-5.48.07-8.02.17q-1.98.075-3.84.18c-12.28.69-20.37 2.18-20.9 2.28 21.47-6.98 43.96-7.82 60.7-7.09-2.8 1.62-5.51 3.41-8.07 5.37-5.64-.53-11.07-.79-16.17-.87-1.26-.03-2.5-.03-3.71-.03Z"/><path fill="#ef3340" d="M175.91 239.09h39.72l-4.53 4.53-41.43-.01 24.93-79.41 7.67-10.31Zm-10.44-83.8c-1.43 1.95-2.73 3.7-3.84 5.2l-1.23-5.88c8.28-11.25 18.56-25.24 20-27.2.11-.16.26-.36.38-.51 14.1-18.02 23.5-25.24 34.45-31.74 1.18-.74 2.37-1.46 3.59-2.16 6.04-3.38 12.08-5.7 17.8-7.27a75 75 0 0 0-11.76 5.29c-11.76 6.74-21.16 15.36-35.91 32.93l-.06.08c-8.19 10.67-16.99 22.57-23.41 31.26Zm-28.87 38.8c.19-.28.44-.65.74-1.08l7.92 37.54-3.7 4.93-8.56-41.12 1.65 7.92c.02-.06.05-.12.07-.18.62-1.66.9-4.03 1.01-5.91.01-.05.02-.11.02-.18.06-.52.22-.99.86-1.92ZM128.97 175l-3.18-15.29 2.68-8.76 4.43 20.99c-1.4 1.03-2.72 2.07-3.92 3.05Zm-44.1 70.55c4.33-2.17 8.54-5.08 12.07-9 .43-.47.84-.95 1.24-1.44a50 50 0 0 1-3.53 4.43c-.48.54-.98 1.05-1.48 1.55-13.08 13.53-32.78 14.73-39.73 15.28-5.01.4-10.24.29-15.1.2 13.59-10.25 24.37-17.37 29.29-32.33.84-2.54 6.82-21.71 14.1-45.16l.03.03c.21-.69.42-1.38.64-2.07 1.31-4.23 2.66-8.57 3.97-12.83.27-.86.54-1.72.8-2.58.25-.82.5-1.64.75-2.45.02-.08.05-.16.08-.24.06-.2.13-.41.19-.62 1.52-3.85 4.07-7.44 6.38-10.8.88-1.29 1.85-2.51 2.88-3.67-9.92 32.14-23.85 77.17-25.25 81.24-.94 2.71-2 5.14-3.13 7.32-3.89 7.99-9.74 13.63-17.12 19.4 1.96-.02 3.93-.08 5.94-.22 4.91-.35 16.18-.98 26.98-6.04m-7.15-130.44c1.22 0 2.45.01 3.71.03-4.74 9.11-7.03 20.19-6.02 33.34-.93-3.65-1.5-7.39-1.67-11.18-.35-7.81.99-15.27 3.98-22.19m56.78-32.14c-18.29 2.33-34.76 9.35-45.68 21.52-1.77.23-3.57.5-5.41.81 1.5-2.03 3.17-3.97 5-5.8q2.22-2.13 4.71-4.02c10.33-7.8 24.75-12.01 40.31-12.49.35-.01.7-.02 1.06-.02Z"/></svg>