<svg xmlns="http://www.w3.org/2000/svg" viewBox="0 0 300 300"><title>New York Yankees cap on light logo</title><path fill="#132448" d="M209.12 257.11c-2.54-36.49-20.09-59.98-48.84-80-.9 19.49-1 36.58-.3 48.54.6 10.35 5.55 16.64 13.63 23.23-10.48 2.39-41.19 1.94-51.66-1.34 1.2-.89 14.15-8.07 15.28-31.46.79-16.81.89-29.22.3-49.73l-1.22-5.26c-14-10.31-26.2-20.92-41.92-37.89 14.38 38.05-3.89 85.37-5.98 102.75-.71 5.84-2.56 17.68-1.96 29.81-4.48-2.7-22.62-14.53-31.29-25.91 25.31-43.29 43.58-85.81 3.89-124.46 7.5-11.24 18.58-21.28 27.41-25.62 9.31 26.8 29.66 48.08 44.35 57.35-11.25-41.65-25.64-55.26-34.76-59.91 5.97-14.02 25.76-28.61 36.25-32.34-4.8 15.57-5.21 25.76-.46 42.38 4.79 16.78 12.29 37.15 20.67 52.43 4.5-7.79 20.38-40.74 24.56-55.12 4.21-14.38 4.21-27.26 2.4-36.56 9.14 4.64 28.76 23.07 33.26 32.06-9.59 2.08-14.08 7-19.77 16.75-5.85 10.05-20.67 47.95-28.91 64.27 8.69 7.5 23.81 16.93 35.79 31.32-13.17-51.84.3-91.24 17.68-103.04 8.09 2.38 18.41 8.97 25.92 16.77-28.17 11.83-26.36 47.78-26.51 50.46-1.28 20.62 7.03 57.25 22.64 66.18 3.39 1.95 3.73 2.08 5.51 2.88-2.99 3.59-20.67 20.99-35.94 31.46l.072-.063zm33.4-51.11v8.03h-2V206h-2.94v-1.76h7.9V206Zm16.33 8.04h-1.99v-7.78h-.05l-2.84 7.78h-1.93l-2.74-7.78h-.06v7.78h-1.98v-9.79h3.45l2.27 6.39h.05l2.36-6.4h3.44v9.79Z"/></svg>