<svg xmlns="http://www.w3.org/2000/svg" viewBox="0 0 300 300"><title>Milwaukee Brewers cap on light logo</title><path fill="#ffc72c" d="M245.74 108.03v27.74c0 23.15-3.79 37.18-21.97 75.62-19.14 40.47-42.75 52.49-70.99 52.49-18.57 0-36.03-6.12-50.14-17.42l-.13.05-3.15-2.82-.58-.51c-4-3.58-7.42-7.43-10.36-11.38-.25-.33-.49-.65-.73-.99-.04-.05-.09-.11-.12-.17-.18-.24-.35-.48-.52-.72a81 81 0 0 1-4.65-7.38c-.16-.27-.32-.55-.46-.82-4.65-8.37-7.71-16.7-10.29-23.67-.74-1.99-1.43-3.87-2.11-5.62-5.33-13.69-15.65-40.45-20.64-53.93-5.19-14-5.99-23.94-2.66-33.23 3.56-9.95 11.52-17.91 22.38-26.79 10.88-8.9 20.21-16.29 33.11-25.61 8.08-5.83 16.74-8.92 25.06-8.92 3.52 0 6.85.57 9.9 1.68.55.2 1.15.42 1.94.72 2.8 1.06 5.29 2.5 7.44 4.27.22-.13.43-.25.64-.38 5.93-3.46 12.58-5.29 19.24-5.29 5.27 0 10.42 1.14 14.93 3.29.97.47 1.54.75 2.19 1.1.32.16.66.34 1.13.59 3.54 1.81 6.58 4.13 9.04 6.83 3.94-1.32 7.76-1.99 11.41-1.99 5.56 0 10.75 1.52 15.45 4.51l1.12.71c2.14 1.37 3.23 2.05 4.89 3.22 12.73 8.81 19.62 18.56 19.62 44.82"/><path fill="#13294b" d="M222.19 243.63h-2.63v7.18h-1.78v-7.18h-2.63v-1.56h7.04Zm11.96 7.18h-1.78v-6.95h-.05l-2.53 6.95h-1.73l-2.43-6.95h-.05v6.95h-1.79v-8.74h3.1l2.03 5.7h.05l2.12-5.7h3.06ZM221.43 70c10.82 7.49 16.06 14.93 16.06 38.03v27.74c0 22.79-4.84 36.26-11.64 50.73-1.45-19.51-10.7-36.81-24.95-48.56 0 0 .27-50.6.27-54.11s-2.62-5.91-6.5-4.37c-.7.28-1.61.65-2.58 1.04v51.04c-10.32-6.03-22.31-9.51-35.1-9.51-.24 0-.48.01-.72.01V76.51c0-3.61-2.77-6.1-6.64-3.85-.76.44-1.77 1.06-2.85 1.73l.23 48.91c-15.18 2.8-27.03 9.15-36.69 18.9V82.95c0-5.6-4.77-7.29-9-4.42-4.14 2.81-7.87 5.66-10.94 8.5-6.01 5.57-6.91 10.41-2.98 19.98 7.3 17.78 17 41.51 21.53 52.6 10.66-16.4 28.73-26.8 46.72-26.8 33.11 0 59.95 26.84 59.95 59.95v.07c0 34.67-28.12 62.8-62.81 62.8-18.91 0-35.75-7.04-48.47-18.62l-.02.02c-.17-.15-.32-.31-.49-.46-.33-.3-.66-.62-.98-.93-4.06-3.87-7.43-8.03-10.27-12.34-.16-.25-.34-.5-.5-.75-.63-.97-1.22-1.94-1.79-2.91-6.24-10.65-9.7-21.68-13.01-30.19-5.77-14.85-15.84-41-20.59-53.81-8.64-23.31-4.11-33.33 17.2-50.77 11.65-9.54 20.56-16.52 32.71-25.3 10.2-7.36 20.35-8.7 27.29-6.17.53.19 1.11.4 1.86.68 3.14 1.18 6.49 3.41 8.66 7.12 2.12-1.25 4.6-2.72 6.49-3.82 9.41-5.49 19.47-5.01 26.44-1.68 1.3.62 1.69.85 3.13 1.59 3.5 1.79 7.55 4.92 9.83 9.6.63-.28 1.26-.56 1.94-.86 10.26-4.59 17.78-3.4 23.45.22 2.92 1.86 3.96 2.51 5.75 3.75ZM118.9 193.61c0 19.99 16.21 36.2 36.2 36.2s36.2-16.21 36.2-36.2-16.2-36.2-36.2-36.2c-19.99 0-36.2 16.21-36.2 36.2"/><path fill="#fff" d="M127.64 193.62c0-6.57 2.31-12.6 6.17-17.34 7.68 10.23 7.68 24.43 0 34.67-3.86-4.74-6.17-10.76-6.17-17.33m10.97 21.95c10.1-12.84 10.1-31.08 0-43.92 4.59-3.46 10.3-5.52 16.48-5.52s11.89 2.06 16.48 5.52c-10.1 12.84-10.1 31.08 0 43.92-4.59 3.46-10.3 5.52-16.48 5.52s-11.89-2.06-16.48-5.52m37.77-4.62c-7.68-10.23-7.68-24.43 0-34.67 3.86 4.74 6.18 10.77 6.18 17.34s-2.32 12.6-6.18 17.33"/></svg>